<svg width="50" height="50" viewBox="0 0 50 50" fill="none" xmlns="http://www.w3.org/2000/svg">
<path d="M39.5833 43.7499V6.24994C39.5821 5.87028 39.4774 5.49812 39.2804 5.17354C39.0835 4.84895 38.8017 4.58423 38.4655 4.40787C38.1293 4.23151 37.7513 4.15018 37.3723 4.17265C36.9933 4.19511 36.6276 4.32052 36.3146 4.53536L9.23123 23.2854C8.10831 24.0624 8.10831 25.9333 9.23123 26.7124L36.3146 45.4624C36.6269 45.6795 36.9928 45.8067 37.3725 45.8304C37.7521 45.8541 38.131 45.7733 38.4679 45.5968C38.8048 45.4203 39.087 45.1548 39.2836 44.8292C39.4803 44.5036 39.5839 44.1303 39.5833 43.7499Z" fill="white"/>
</svg>
