<svg width="50" height="50" viewBox="0 0 50 50" fill="none" xmlns="http://www.w3.org/2000/svg">
<path fill-rule="evenodd" clip-rule="evenodd" d="M18.0562 19.6188C17.3495 19.6188 16.6498 19.758 15.9969 20.0285C15.344 20.2989 14.7508 20.6953 14.2511 21.195C13.7514 21.6947 13.355 22.2879 13.0846 22.9408C12.8141 23.5936 12.6749 24.2934 12.6749 25.0001C12.6749 25.7068 12.8141 26.4065 13.0846 27.0594C13.355 27.7123 13.7514 28.3055 14.2511 28.8052C14.7508 29.3049 15.344 29.7013 15.9969 29.9717C16.6498 30.2421 17.3495 30.3813 18.0562 30.3813H23.4374V25.1084C23.4366 25.0362 23.4366 24.964 23.4374 24.8917V19.6188H18.0562ZM23.4374 16.4938H18.0562C16.6287 16.4938 15.2597 15.9268 14.2503 14.9174C13.241 13.908 12.6739 12.539 12.6739 11.1115C12.6739 9.68407 13.241 8.31506 14.2503 7.30568C15.2597 6.29631 16.6287 5.72925 18.0562 5.72925H23.4374V16.4938ZM26.5624 5.72925V16.4938H31.9437C33.3528 16.4661 34.6949 15.8869 35.6816 14.8805C36.6684 13.8741 37.2211 12.5209 37.2211 11.1115C37.2211 9.70213 36.6684 8.34893 35.6816 7.34257C34.6949 6.33622 33.3528 5.75697 31.9437 5.72925H26.5624ZM31.9437 19.6167C30.5312 19.6166 29.1752 20.1718 28.1685 21.1626C27.1617 22.1533 26.5849 23.5002 26.5624 24.9126V25.0855C26.5797 26.1459 26.9099 27.1776 27.5116 28.0509C28.1133 28.9243 28.9596 29.6004 29.9443 29.9943C30.929 30.3882 32.0081 30.4824 33.0461 30.265C34.0842 30.0475 35.0348 29.5283 35.7787 28.7723C36.5225 28.0164 37.0264 27.0575 37.2271 26.0161C37.4277 24.9747 37.3161 23.8972 36.9064 22.919C36.4967 21.9408 35.807 21.1054 34.9241 20.5179C34.0411 19.9304 33.0042 19.6169 31.9437 19.6167ZM18.0562 33.5063C16.9914 33.5059 15.9504 33.8213 15.0648 34.4126C14.1792 35.0038 13.4889 35.8445 13.0812 36.8281C12.6734 37.8117 12.5665 38.8942 12.774 39.9386C12.9814 40.983 13.494 41.9424 14.2468 42.6955C14.9996 43.4486 15.9588 43.9615 17.0031 44.1694C18.0474 44.3773 19.1299 44.2708 20.1137 43.8634C21.0975 43.456 21.9384 42.766 22.53 41.8807C23.1217 40.9954 23.4374 39.9545 23.4374 38.8897V33.5063H18.0562Z" fill="white"/>
</svg>
