<svg width="50" height="50" viewBox="0 0 50 50" fill="none" xmlns="http://www.w3.org/2000/svg">
<g id="mdi:web">
<path id="Vector" d="M34.0834 29.1665C34.2501 27.7915 34.3751 26.4165 34.3751 24.9998C34.3751 23.5832 34.2501 22.2082 34.0834 20.8332H41.1251C41.4584 22.1665 41.6667 23.5623 41.6667 24.9998C41.6667 26.4373 41.4584 27.8332 41.1251 29.1665M30.3959 40.7498C31.6459 38.4373 32.6042 35.9373 33.2709 33.3332H39.4167C37.3983 36.8087 34.1962 39.4415 30.3959 40.7498ZM29.8751 29.1665H20.1251C19.9167 27.7915 19.7917 26.4165 19.7917 24.9998C19.7917 23.5832 19.9167 22.1873 20.1251 20.8332H29.8751C30.0626 22.1873 30.2084 23.5832 30.2084 24.9998C30.2084 26.4165 30.0626 27.7915 29.8751 29.1665ZM25.0001 41.5832C23.2709 39.0832 21.8751 36.3123 21.0209 33.3332H28.9792C28.1251 36.3123 26.7292 39.0832 25.0001 41.5832ZM16.6667 16.6665H10.5834C12.581 13.1815 15.7809 10.5446 19.5834 9.24984C18.3334 11.5623 17.3959 14.0623 16.6667 16.6665ZM10.5834 33.3332H16.6667C17.3959 35.9373 18.3334 38.4373 19.5834 40.7498C15.7889 39.4408 12.5935 36.8076 10.5834 33.3332ZM8.87508 29.1665C8.54175 27.8332 8.33341 26.4373 8.33341 24.9998C8.33341 23.5623 8.54175 22.1665 8.87508 20.8332H15.9167C15.7501 22.2082 15.6251 23.5832 15.6251 24.9998C15.6251 26.4165 15.7501 27.7915 15.9167 29.1665M25.0001 8.39567C26.7292 10.8957 28.1251 13.6873 28.9792 16.6665H21.0209C21.8751 13.6873 23.2709 10.8957 25.0001 8.39567ZM39.4167 16.6665H33.2709C32.6189 14.0862 31.6534 11.5955 30.3959 9.24984C34.2292 10.5623 37.4167 13.2082 39.4167 16.6665ZM25.0001 4.1665C13.4792 4.1665 4.16675 13.5415 4.16675 24.9998C4.16675 30.5252 6.36168 35.8242 10.2687 39.7312C12.2032 41.6658 14.4999 43.2004 17.0275 44.2473C19.5551 45.2943 22.2642 45.8332 25.0001 45.8332C30.5254 45.8332 35.8245 43.6382 39.7315 39.7312C43.6385 35.8242 45.8334 30.5252 45.8334 24.9998C45.8334 22.264 45.2945 19.5549 44.2476 17.0273C43.2006 14.4996 41.666 12.203 39.7315 10.2684C37.7969 8.33389 35.5003 6.79932 32.9727 5.75235C30.445 4.70537 27.736 4.1665 25.0001 4.1665Z" fill="white"/>
</g>
</svg>
