<svg width="31" height="30" viewBox="0 0 31 30" fill="none" xmlns="http://www.w3.org/2000/svg">
<g clip-path="url(#clip0_105_45)">
<path d="M23.6588 0H7.72125C3.838 0 0.690002 3.148 0.690002 7.03125V22.9688C0.690002 26.852 3.838 30 7.72125 30H23.6588C27.542 30 30.69 26.852 30.69 22.9688V7.03125C30.69 3.148 27.542 0 23.6588 0Z" fill="#E14E1D"/>
<path d="M6.315 4.45312L7.32399 15.7726H20.2978L19.8625 20.6277L15.6852 21.7571L11.5158 20.6293L11.237 17.5119H7.47985L8.01715 23.5214L15.6844 25.6509L23.3613 23.5214L24.3906 12.0299H10.7475L10.405 8.19668H24.7297L25.065 4.45312H6.315Z" fill="white"/>
<path d="M15.69 4.45312H6.315L7.32399 15.7726H15.69V12.0299H10.7475L10.405 8.19668H15.69V4.45312ZM15.69 21.7555L15.6852 21.7571L11.5158 20.6293L11.237 17.5119H7.47985L8.01715 23.5214L15.6844 25.6509L15.6901 25.6493L15.69 21.7555Z" fill="#EBEBEB"/>
</g>
<defs>
<clipPath id="clip0_105_45">
<rect width="30" height="30" fill="white" transform="translate(0.690002)"/>
</clipPath>
</defs>
</svg>
