<svg width="31" height="30" viewBox="0 0 31 30" fill="none" xmlns="http://www.w3.org/2000/svg">
<g clip-path="url(#clip0_105_41)">
<path d="M23.6588 0H7.72125C3.838 0 0.690002 3.148 0.690002 7.03125V22.9688C0.690002 26.852 3.838 30 7.72125 30H23.6588C27.542 30 30.69 26.852 30.69 22.9688V7.03125C30.69 3.148 27.542 0 23.6588 0Z" fill="#F0DB4F"/>
<path d="M8.57812 25.07L10.8738 23.6807C11.3168 24.4659 11.7197 25.1304 12.6861 25.1304C13.6125 25.1304 14.1966 24.7681 14.1966 23.3585V13.7728H17.0159V23.3984C17.0159 26.3183 15.3042 27.6475 12.8069 27.6475C10.5517 27.6475 9.24257 26.4795 8.578 25.0698M18.5471 24.7679L20.8426 23.4389C21.4469 24.4258 22.2323 25.1507 23.6217 25.1507C24.79 25.1507 25.5348 24.5666 25.5348 23.7611C25.5348 22.7945 24.7696 22.4521 23.4807 21.8884L22.7761 21.5862C20.7421 20.7204 19.3928 19.6329 19.3928 17.3372C19.3928 15.2227 21.0039 13.6116 23.5212 13.6116C25.3134 13.6116 26.6023 14.2359 27.5285 15.8671L25.3335 17.2767C24.8501 16.4108 24.3267 16.0685 23.5212 16.0685C22.6955 16.0685 22.1719 16.5921 22.1719 17.2767C22.1719 18.1225 22.6955 18.4649 23.9037 18.9886L24.6084 19.2906C27.0048 20.3177 28.3541 21.3647 28.3541 23.7208C28.3541 26.2583 26.3605 27.6477 23.6822 27.6477C21.0643 27.6477 19.3727 26.3992 18.5471 24.7679Z" fill="#323330"/>
</g>
<defs>
<clipPath id="clip0_105_41">
<rect width="30" height="30" fill="white" transform="translate(0.690002)"/>
</clipPath>
</defs>
</svg>
