<svg width="50" height="50" viewBox="0 0 50 50" fill="none" xmlns="http://www.w3.org/2000/svg">
<path d="M8.33329 41.6666C7.18746 41.6666 6.2069 41.2589 5.39163 40.4437C4.57635 39.6284 4.16801 38.6471 4.16663 37.4999V12.4999C4.16663 11.3541 4.57496 10.3735 5.39163 9.55825C6.20829 8.74297 7.18885 8.33464 8.33329 8.33325H41.6666C42.8125 8.33325 43.7937 8.74158 44.6104 9.55825C45.427 10.3749 45.8347 11.3555 45.8333 12.4999V37.4999C45.8333 38.6458 45.4257 39.627 44.6104 40.4437C43.7951 41.2603 42.8138 41.668 41.6666 41.6666H8.33329ZM25 27.0833L8.33329 16.6666V37.4999H41.6666V16.6666L25 27.0833ZM25 22.9166L41.6666 12.4999H8.33329L25 22.9166ZM8.33329 16.6666V12.4999V37.4999V16.6666Z" fill="white"/>
</svg>
