<svg width="50" height="50" viewBox="0 0 50 50" fill="none" xmlns="http://www.w3.org/2000/svg">
<path d="M12.7167 12.3125C13.9333 13.3 14.3875 13.225 16.6708 13.0729L38.1958 11.7813C38.6542 11.7813 38.2729 11.3229 38.1208 11.2479L34.5458 8.66461C33.8604 8.13336 32.9479 7.52295 31.2 7.67503L10.3563 9.19586C9.59792 9.27086 9.44583 9.65211 9.74792 9.95628L12.7167 12.3125ZM14.0083 17.3292V39.975C14.0083 41.1938 14.6167 41.6479 15.9875 41.5729L39.6417 40.2042C41.0104 40.1292 41.1625 39.2917 41.1625 38.3021V15.8084C41.1625 14.8209 40.7833 14.2875 39.9458 14.3646L15.225 15.8084C14.3125 15.8834 14.0083 16.3396 14.0083 17.3292ZM37.3625 18.5438C37.5125 19.2271 37.3625 19.9125 36.675 19.9896L35.5354 20.2167V36.9354C34.5458 37.4688 33.6333 37.7709 32.8729 37.7709C31.6562 37.7709 31.3521 37.3917 30.4396 36.2521L22.9833 24.5479V35.8729L25.3437 36.4042C25.3437 36.4042 25.3438 37.7709 23.4396 37.7709L18.1917 38.075C18.0396 37.7709 18.1917 37.0125 18.725 36.8604L20.0938 36.4813V21.5084L18.1917 21.3563C18.0396 20.6709 18.4208 19.6834 19.4854 19.6063L25.1146 19.2271L32.8729 31.0854V20.5959L30.8938 20.3688C30.7438 19.5313 31.3521 18.925 32.1125 18.8479L37.3625 18.5438ZM8.60625 7.14378L30.2854 5.54795C32.9458 5.31878 33.6312 5.47295 35.3062 6.68753L42.225 11.5521C43.3667 12.3875 43.7479 12.6146 43.7479 13.5271V40.2042C43.7479 41.8771 43.1396 42.8646 41.0104 43.0167L15.8333 44.5375C14.2354 44.6125 13.475 44.3854 12.6375 43.3209L7.54167 36.7084C6.62917 35.4917 6.25 34.5813 6.25 33.5146V9.80211C6.25 8.43545 6.85625 7.29586 8.60625 7.14378Z" fill="white"/>
</svg>
