<svg width="50" height="50" viewBox="0 0 50 50" fill="none" xmlns="http://www.w3.org/2000/svg">
<g clip-path="url(#clip0_126_18)">
<path fill-rule="evenodd" clip-rule="evenodd" d="M45.5 12.6166C45.5909 12.0651 45.5322 11.4994 45.3301 10.9784C45.128 10.4573 44.7899 10 44.351 9.65409C43.9121 9.30815 43.3884 9.08624 42.8346 9.01148C42.2808 8.93673 41.717 9.01186 41.2021 9.22906L5.57708 24.2291C3.09375 25.2749 2.96666 28.8666 5.57708 29.9499C8.16191 31.0279 10.7844 32.0133 13.4396 32.9041C15.8729 33.7082 18.5271 34.452 20.6542 34.6624C21.2354 35.3582 21.9667 36.0291 22.7125 36.6416C23.8521 37.5791 25.2229 38.5436 26.6396 39.4686C29.4771 41.3228 32.625 43.0957 34.7458 44.2499C37.2812 45.6249 40.3167 44.0416 40.7708 41.277L45.5 12.6166ZM9.57083 27.0686L41.0792 13.802L36.6667 40.552C34.5854 39.4207 31.5875 37.727 28.9167 35.9811C27.6857 35.1908 26.4972 34.3362 25.3562 33.4207C25.0513 33.1716 24.7552 32.9117 24.4687 32.6416L32.7208 24.3916C33.1117 24.0009 33.3315 23.471 33.3317 22.9183C33.3319 22.3657 33.1125 21.8356 32.7219 21.4447C32.3312 21.0538 31.8013 20.834 31.2486 20.8338C30.696 20.8337 30.1659 21.053 29.775 21.4436L20.7396 30.4791C19.2104 30.2832 17.0812 29.7166 14.7437 28.9457C13.0035 28.366 11.2793 27.7394 9.57291 27.0666L9.57083 27.0686Z" fill="white"/>
</g>
<defs>
<clipPath id="clip0_126_18">
<rect width="50" height="50" fill="white"/>
</clipPath>
</defs>
</svg>
