<svg width="50" height="50" viewBox="0 0 50 50" fill="none" xmlns="http://www.w3.org/2000/svg">
<path d="M19.5 15.875C20.9 15.875 22.025 14.75 22.025 13.35C22.025 11.95 20.9 10.825 19.5 10.825C18.1 10.825 16.975 11.95 16.975 13.35C16.975 14.75 18.1 15.875 19.5 15.875Z" fill="#0472D7"/>
<path fill-rule="evenodd" clip-rule="evenodd" d="M24.575 21.3751C24.575 18.6751 22.3 16.7251 19.5 16.7251C16.7 16.7251 14.425 18.6751 14.425 21.3751V22.6501C14.425 22.8751 14.525 23.1001 14.675 23.2501C14.825 23.4001 15.05 23.5001 15.275 23.5001H23.725C23.95 23.5001 24.175 23.4001 24.325 23.2501C24.475 23.1001 24.575 22.8751 24.575 22.6501V21.3751ZM14.375 28.7501C14.375 28.2528 14.5725 27.7759 14.9242 27.4243C15.2758 27.0726 15.7527 26.8751 16.25 26.8751H33.75C34.2473 26.8751 34.7242 27.0726 35.0758 27.4243C35.4275 27.7759 35.625 28.2528 35.625 28.7501C35.625 29.2474 35.4275 29.7243 35.0758 30.0759C34.7242 30.4276 34.2473 30.6251 33.75 30.6251H16.25C15.7527 30.6251 15.2758 30.4276 14.9242 30.0759C14.5725 29.7243 14.375 29.2474 14.375 28.7501ZM14.375 36.2501C14.375 35.7528 14.5725 35.2759 14.9242 34.9243C15.2758 34.5726 15.7527 34.3751 16.25 34.3751H33.75C34.2473 34.3751 34.7242 34.5726 35.0758 34.9243C35.4275 35.2759 35.625 35.7528 35.625 36.2501C35.625 36.7474 35.4275 37.2243 35.0758 37.5759C34.7242 37.9276 34.2473 38.1251 33.75 38.1251H16.25C15.7527 38.1251 15.2758 37.9276 14.9242 37.5759C14.5725 37.2243 14.375 36.7474 14.375 36.2501Z" fill="#0472D7"/>
<path fill-rule="evenodd" clip-rule="evenodd" d="M6.25 6.25C6.25 3.495 8.495 1.25 11.25 1.25H27.975C29.38 1.25 30.705 1.845 31.6375 2.8275L31.6525 2.845L42.4325 14.6C43.33 15.5575 43.75 16.81 43.75 18V43.75C43.75 46.505 41.505 48.75 38.75 48.75H11.25C8.495 48.75 6.25 46.505 6.25 43.75V6.25ZM27.9725 6.25H11.25V43.75H38.75V17.98L28.01 6.2675L28.0025 6.265C27.9934 6.25839 27.9833 6.25332 27.9725 6.25Z" fill="#0472D7"/>
<path fill-rule="evenodd" clip-rule="evenodd" d="M27.975 1.25C28.638 1.25 29.2739 1.51339 29.7427 1.98223C30.2116 2.45107 30.475 3.08696 30.475 3.75V15.5H41.25C41.5783 15.5 41.9034 15.5647 42.2067 15.6903C42.51 15.8159 42.7856 16.0001 43.0177 16.2322C43.2499 16.4644 43.434 16.74 43.5597 17.0433C43.6853 17.3466 43.75 17.6717 43.75 18C43.75 18.3283 43.6853 18.6534 43.5597 18.9567C43.434 19.26 43.2499 19.5356 43.0177 19.7678C42.7856 19.9999 42.51 20.1841 42.2067 20.3097C41.9034 20.4353 41.5783 20.5 41.25 20.5H27.975C27.3119 20.5 26.6761 20.2366 26.2072 19.7678C25.7384 19.2989 25.475 18.663 25.475 18V3.75C25.475 3.08696 25.7384 2.45107 26.2072 1.98223C26.6761 1.51339 27.3119 1.25 27.975 1.25Z" fill="#0472D7"/>
</svg>
