<svg width="50" height="50" viewBox="0 0 50 50" fill="none" xmlns="http://www.w3.org/2000/svg">
<path d="M8.33332 41.6667C7.18749 41.6667 6.20693 41.2591 5.39166 40.4438C4.57638 39.6285 4.16805 38.6473 4.16666 37.5V12.5C4.16666 11.3542 4.57499 10.3737 5.39166 9.55837C6.20832 8.7431 7.18888 8.33476 8.33332 8.33337H41.6667C42.8125 8.33337 43.7937 8.74171 44.6104 9.55837C45.4271 10.375 45.8347 11.3556 45.8333 12.5V37.5C45.8333 38.6459 45.4257 39.6271 44.6104 40.4438C43.7951 41.2605 42.8139 41.6681 41.6667 41.6667H8.33332ZM25 27.0834L8.33332 16.6667V37.5H41.6667V16.6667L25 27.0834ZM25 22.9167L41.6667 12.5H8.33332L25 22.9167ZM8.33332 16.6667V12.5V37.5V16.6667Z" fill="#0472D7"/>
</svg>
