<svg width="50" height="50" viewBox="0 0 50 50" fill="none" xmlns="http://www.w3.org/2000/svg">
<path d="M43.2793 31.3086L34.0528 27.1739C33.6347 26.9948 33.1786 26.9227 32.7257 26.9643C32.2728 27.0059 31.8374 27.1599 31.459 27.4122C31.4206 27.4368 31.384 27.4642 31.3496 27.4942L26.5274 31.5958C26.4773 31.623 26.4216 31.6383 26.3647 31.6403C26.3077 31.6424 26.2511 31.6311 26.1992 31.6075C23.0996 30.1114 19.8887 26.92 18.3867 23.8633C18.3617 23.8123 18.3487 23.7561 18.3487 23.6993C18.3487 23.6424 18.3617 23.5863 18.3867 23.5352L22.502 18.6524C22.5315 18.6163 22.5589 18.5784 22.584 18.5391C22.8328 18.1592 22.9831 17.7234 23.0213 17.2709C23.0595 16.8184 22.9844 16.3635 22.8028 15.9473L18.6973 6.73638C18.4641 6.19265 18.0609 5.7392 17.5482 5.44408C17.0354 5.14897 16.4408 5.02812 15.8535 5.09966C13.3012 5.4352 10.9584 6.6886 9.26296 8.62564C7.56747 10.5627 6.6353 13.0508 6.64065 15.6251C6.64065 30.918 19.0821 43.3594 34.375 43.3594C36.9492 43.3644 39.4371 42.432 41.374 40.7366C43.311 39.0412 44.5645 36.6987 44.9004 34.1465C44.9718 33.562 44.8526 32.9701 44.5605 32.4587C44.2684 31.9474 43.8191 31.5441 43.2793 31.3086ZM34.375 41.0157C20.375 41.0157 8.9844 29.6251 8.9844 15.6251C8.97787 13.621 9.7012 11.6831 11.0193 10.1735C12.3373 8.66388 14.1599 7.68577 16.1465 7.42193H16.1914C16.2701 7.4234 16.3466 7.44861 16.4107 7.49427C16.4748 7.53992 16.5237 7.60389 16.5508 7.67779L20.6719 16.879C20.6954 16.9301 20.7076 16.9857 20.7076 17.042C20.7076 17.0983 20.6954 17.154 20.6719 17.2051L16.5489 22.0997C16.5181 22.1346 16.49 22.1718 16.4649 22.211C16.2069 22.6048 16.0549 23.0587 16.0238 23.5285C15.9927 23.9983 16.0834 24.4682 16.2871 24.8926C18.0196 28.4395 21.5938 31.9864 25.1797 33.7188C25.6067 33.9214 26.0788 34.01 26.5502 33.9757C27.0215 33.9415 27.476 33.7857 27.8692 33.5235C27.9063 33.4981 27.9434 33.4708 27.9785 33.4415L32.7988 29.3399C32.8465 29.3143 32.899 29.2993 32.953 29.296C33.0069 29.2926 33.0609 29.3009 33.1113 29.3204L42.3399 33.4551C42.4152 33.4872 42.4786 33.5422 42.521 33.6123C42.5634 33.6824 42.5827 33.7641 42.5762 33.8458C42.3137 35.8333 41.3365 37.6572 39.8272 38.9768C38.3179 40.2963 36.3798 41.0211 34.375 41.0157Z" fill="#0472D7"/>
</svg>
