<?xml version="1.0" standalone="no"?>
<!DOCTYPE svg PUBLIC "-//W3C//DTD SVG 20010904//EN"
 "http://www.w3.org/TR/2001/REC-SVG-20010904/DTD/svg10.dtd">
<svg version="1.0" xmlns="http://www.w3.org/2000/svg"
 width="680.000000pt" height="680.000000pt" viewBox="0 0 680.000000 680.000000"
 preserveAspectRatio="xMidYMid meet">
<metadata>
Created by potrace 1.14, written by Peter Selinger 2001-2017
</metadata>
<g transform="translate(0.000000,680.000000) scale(0.100000,-0.100000)"
fill="#000000" stroke="none">
<path d="M2350 6769 c-52 -9 -113 -20 -135 -23 -22 -3 -51 -8 -65 -11 -13 -2
-42 -7 -65 -10 -22 -3 -68 -10 -103 -16 -34 -5 -84 -12 -110 -15 -26 -2 -58
-7 -72 -9 -14 -3 -47 -7 -75 -10 -27 -3 -66 -9 -85 -12 -44 -7 -462 -12 -474
-5 -5 3 -34 6 -65 8 -31 1 -72 5 -91 7 -19 3 -58 8 -86 12 l-51 6 -68 -73
c-125 -134 -166 -203 -144 -244 9 -17 9 -33 1 -64 -5 -22 -8 -66 -5 -98 8 -78
8 -111 1 -152 -28 -170 -30 -200 -15 -224 21 -32 42 -34 233 -29 153 4 167 3
198 -16 35 -22 55 -73 81 -201 2 -8 13 -51 25 -95 12 -44 23 -88 25 -98 2 -9
6 -21 9 -25 3 -5 7 -19 10 -33 6 -32 83 -285 127 -419 71 -219 108 -341 114
-380 23 -150 42 -255 65 -355 11 -49 22 -99 24 -110 5 -27 32 -103 53 -151 9
-21 17 -41 18 -44 1 -3 9 -22 18 -44 9 -21 17 -41 17 -43 0 -3 7 -19 15 -36
17 -38 88 -221 139 -362 20 -55 46 -122 56 -150 11 -27 44 -124 75 -215 30
-91 55 -165 56 -165 0 0 2 -7 4 -15 4 -21 35 -120 48 -155 6 -16 13 -34 14
-40 2 -12 21 -75 61 -210 59 -195 84 -280 87 -290 1 -5 5 -17 8 -25 6 -16 56
-183 62 -210 2 -8 15 -56 29 -106 15 -50 28 -100 30 -110 3 -10 9 -31 15 -46
6 -16 8 -28 6 -28 -3 0 2 -17 10 -38 8 -20 17 -48 19 -62 3 -14 17 -68 31
-120 15 -52 29 -102 31 -110 27 -122 94 -360 125 -450 22 -63 44 -131 49 -150
5 -19 20 -77 34 -129 14 -51 27 -121 30 -155 3 -33 8 -89 11 -124 16 -184 126
-287 295 -277 64 4 114 10 174 19 17 3 54 8 81 11 28 3 61 8 75 10 14 3 43 8
65 11 22 3 47 8 55 9 8 2 40 7 70 11 30 4 57 9 60 9 8 2 74 16 90 19 31 5 106
27 148 42 48 18 54 39 22 83 -36 51 -33 73 26 199 71 149 87 186 99 222 1 3 7
19 14 35 45 105 195 537 254 730 71 234 212 748 242 880 4 19 15 80 19 105 3
14 5 25 6 25 1 0 3 18 5 40 2 34 25 176 41 255 3 14 7 36 9 50 5 34 36 183 49
238 58 238 123 445 233 742 4 8 7 20 9 25 1 6 23 73 49 150 26 77 49 150 51
163 3 13 11 42 19 65 15 48 115 399 120 425 2 9 4 17 6 17 1 0 3 9 5 20 1 11
15 65 29 120 14 55 28 111 31 125 3 14 11 50 19 80 18 68 52 217 62 270 2 14
9 43 14 65 6 22 12 47 13 55 1 8 7 35 11 60 5 25 9 47 10 50 5 36 81 62 220
75 28 3 70 7 95 10 58 5 310 18 492 24 24 1 29 8 44 54 13 42 17 106 19 333 2
187 7 288 14 303 9 16 9 21 -1 21 -10 0 -13 24 -13 93 0 107 -9 147 -35 147
-10 0 -64 9 -121 20 -118 23 -157 30 -354 66 -77 14 -149 27 -160 29 -11 2
-58 11 -105 19 -47 8 -98 18 -115 21 -302 56 -363 66 -409 61 -60 -5 -159 -36
-213 -67 -45 -26 -95 -51 -144 -73 -45 -21 -83 -60 -108 -111 -18 -37 -20 -64
-21 -417 l0 -376 22 -26 c16 -17 44 -31 88 -42 68 -17 114 -40 144 -73 24 -26
24 -87 1 -201 -3 -14 -7 -34 -9 -45 -7 -35 -37 -147 -58 -217 -11 -37 -21 -73
-22 -80 -2 -7 -5 -20 -8 -28 -6 -17 -51 -162 -53 -170 -1 -3 -5 -16 -9 -30
-86 -271 -121 -388 -127 -425 -1 -5 -5 -21 -10 -34 -5 -13 -12 -40 -15 -60 -3
-20 -9 -43 -14 -51 -4 -8 -15 -49 -25 -90 -10 -41 -22 -83 -26 -92 -5 -9 -11
-33 -15 -52 -3 -20 -16 -68 -29 -106 -13 -39 -22 -70 -19 -70 2 0 -2 -13 -11
-30 -8 -16 -15 -33 -15 -37 0 -8 -36 -127 -47 -153 -3 -8 -7 -17 -8 -20 -17
-63 -123 -344 -160 -427 l-24 -51 20 -43 c30 -61 21 -132 -56 -449 -10 -39
-77 -255 -105 -335 -25 -74 -87 -298 -105 -380 -19 -84 -132 -441 -172 -540
-74 -185 -152 -302 -192 -287 -33 12 -73 85 -115 207 -15 44 -31 89 -36 100
-4 11 -11 29 -13 40 -3 11 -15 54 -27 95 -12 41 -24 86 -26 99 -3 13 -9 32
-15 43 -5 10 -7 18 -3 18 3 0 1 6 -5 13 -6 8 -9 16 -6 19 3 3 -2 21 -10 41 -8
21 -13 37 -11 37 3 0 -1 18 -9 40 -8 22 -13 40 -11 40 2 0 -2 20 -10 45 -7 25
-11 45 -8 45 3 0 0 8 -5 19 -6 10 -13 31 -16 47 -5 30 -11 58 -21 97 -3 12 -7
32 -10 45 -2 13 -23 76 -45 140 -22 64 -42 122 -43 127 -2 6 -6 17 -9 25 -15
39 -114 355 -123 393 -2 9 -6 25 -8 35 -27 103 -55 226 -61 262 -4 25 -9 54
-11 65 -3 11 -7 56 -9 100 -8 109 -10 129 -19 143 -4 7 -5 12 -2 12 2 0 -2 28
-11 63 -8 34 -16 69 -18 77 -3 16 -39 129 -62 200 -8 25 -17 79 -19 120 -9
174 -22 289 -34 305 -16 22 -23 77 -26 210 -1 77 -4 147 -7 155 -2 8 -7 29
-11 45 -5 17 -14 44 -21 60 -7 17 -21 48 -30 71 -10 26 -32 53 -60 74 -53 40
-56 60 -25 185 21 84 16 132 -16 183 -8 12 -14 28 -13 35 2 6 -3 32 -10 57 -7
25 -15 56 -18 69 -2 13 -9 34 -15 45 -6 12 -11 22 -10 23 7 11 -53 142 -86
189 -34 47 -64 70 -110 83 -26 8 -34 5 -59 -18 -24 -24 -32 -27 -60 -19 -32 8
-75 53 -79 83 -2 12 8 15 45 14 26 -1 57 4 70 10 27 15 51 19 206 36 28 3 57
8 65 10 8 2 38 7 65 10 81 11 272 53 302 67 35 16 41 49 16 85 -28 41 -43 79
-39 100 2 10 24 47 48 82 l43 63 0 166 c1 104 5 183 13 210 15 50 12 56 -37
81 -47 24 -66 47 -67 80 -1 14 -2 32 -3 39 -1 17 -84 14 -201 -9z m-1434 -253
c19 -19 34 -41 34 -49 0 -21 -61 -47 -127 -53 l-58 -6 1 35 c1 22 13 49 30 71
38 48 74 48 120 2z m4416 -7 c153 -4 175 -11 142 -44 -16 -16 -27 -17 -113
-17 -100 1 -182 14 -243 40 -45 19 -35 29 24 26 24 -1 109 -4 190 -5z m-3119
-118 c10 -7 17 -18 17 -23 0 -12 -56 -35 -100 -41 -19 -3 -35 -6 -35 -7 0 -1
-13 -3 -30 -4 -16 -2 -52 -6 -80 -10 -27 -4 -66 -9 -85 -11 -33 -4 -80 -8
-235 -20 -38 -3 -97 -7 -130 -10 -220 -17 -391 -24 -405 -15 -15 9 -1 19 33
25 34 6 207 33 252 40 23 3 50 7 60 9 11 2 43 7 70 10 28 4 61 8 75 11 14 2
45 7 70 10 25 2 54 6 65 9 18 3 92 13 165 21 14 2 59 6 100 10 41 3 76 7 77 9
9 8 103 -2 116 -13z m-1407 -89 c15 -48 27 -153 26 -227 0 -57 -24 -125 -45
-125 -26 0 -49 146 -49 317 0 71 6 85 35 81 15 -2 25 -15 33 -46z m4253 -51
c17 -11 7 -42 -24 -74 -32 -32 -98 -50 -191 -52 -72 -1 -74 -1 -74 23 0 29 61
89 105 101 39 12 166 13 184 2z m841 -11 c11 -11 20 -27 20 -35 0 -46 -154
-78 -215 -45 -32 17 -32 44 0 75 21 22 33 25 100 25 62 0 79 -4 95 -20z m150
-258 c22 -20 25 -30 25 -97 0 -85 -10 -101 -81 -128 -60 -23 -248 -41 -296
-29 -46 11 3 48 87 66 22 5 38 20 60 54 42 68 105 143 129 152 30 12 48 8 76
-18z m-1177 -93 c18 -29 -14 -51 -62 -43 -48 8 -90 42 -69 55 23 15 120 6 131
-12z m-3439 -135 c3 -9 3 -20 0 -25 -8 -13 -34 9 -34 27 0 19 26 18 34 -2z
m3166 -80 c0 -17 -5 -24 -20 -24 -28 0 -38 30 -15 46 23 17 35 9 35 -22z m930
15 c0 -4 -7 -6 -15 -3 -8 4 -15 10 -15 15 0 4 7 6 15 3 8 -4 15 -10 15 -15z
m-4066 -53 c-24 -18 -29 -14 -14 14 9 16 15 19 23 11 8 -8 6 -15 -9 -25z m488
-78 c14 -12 78 -190 78 -218 0 -6 13 -28 29 -48 34 -43 48 -89 71 -227 15 -92
14 -101 -19 -115 -26 -10 -28 -15 -25 -51 6 -60 19 -76 65 -84 37 -6 43 -12
61 -52 18 -40 20 -61 15 -185 -2 -76 -7 -141 -9 -143 -13 -13 -37 36 -43 85
-3 30 -21 86 -40 125 -51 108 -62 133 -100 239 -36 101 -103 340 -110 395 -2
17 -6 38 -9 48 -3 10 -12 58 -21 107 -14 80 -14 92 0 113 17 26 34 29 57 11z
m2818 -722 c0 -2 -11 -35 -24 -74 -41 -120 -93 -201 -110 -173 -7 11 43 179
62 211 22 35 41 50 58 43 8 -3 14 -6 14 -7z m-2497 -480 c13 -13 24 -38 25
-56 3 -39 -15 -110 -29 -110 -16 0 -37 60 -44 128 -5 53 -4 62 10 62 9 0 26
-11 38 -24z m2321 -178 c-8 -29 -17 -63 -20 -76 -6 -30 -36 -76 -51 -79 -7 -2
-10 3 -8 10 2 6 13 45 25 85 18 61 47 112 64 112 2 0 -2 -24 -10 -52z m-2261
-146 c3 -4 8 -23 11 -43 3 -20 8 -42 10 -50 11 -30 15 -139 5 -139 -25 0 -91
223 -74 250 6 10 39 -2 48 -18z m2092 -438 c-7 -165 -40 -292 -79 -307 -9 -4
-18 -2 -21 4 -5 8 -1 69 9 119 6 32 63 233 73 260 6 14 9 22 12 35 0 3 3 5 6
5 2 0 2 -52 0 -116z m-1978 -161 c47 -43 72 -172 77 -393 2 -84 -1 -100 -18
-100 -11 0 -45 115 -62 215 -4 22 -9 47 -10 55 -14 65 -21 240 -11 240 2 0 13
-8 24 -17z m181 -852 c2 -48 0 -61 -11 -61 -19 0 -28 23 -33 87 -5 51 -4 53
18 44 20 -7 23 -16 26 -70z m47 -183 c14 -46 14 -56 -1 -62 -16 -6 -34 29 -34
65 0 26 26 24 35 -3z m1509 -430 c-9 -29 -28 -42 -32 -22 -4 16 15 44 30 44 5
0 6 -10 2 -22z m-344 -73 c-5 -13 -7 -25 -4 -28 3 -2 -7 -35 -22 -71 -19 -49
-31 -66 -43 -63 -9 2 -14 10 -13 18 2 8 6 25 8 39 9 49 26 106 41 134 14 28
16 29 29 12 8 -12 10 -26 4 -41z m-1276 -154 c46 -117 100 -361 79 -361 -16 0
-92 161 -105 225 -12 51 -15 110 -9 163 2 24 19 11 35 -27z m1489 -184 c-9
-48 -33 -85 -60 -90 -33 -6 -40 28 -19 90 4 14 20 26 39 31 42 12 48 7 40 -31z
m-973 -111 c0 -2 3 -11 6 -20 4 -10 1 -16 -9 -16 -17 0 -40 24 -30 33 7 8 33
10 33 3z m73 -290 c43 -39 48 -75 15 -106 -44 -41 -58 -24 -74 93 -8 58 5 61
59 13z m613 -70 c-5 -37 -13 -83 -20 -111 -7 -27 -26 -64 -41 -78 -19 -20 -56
-23 -50 -4 2 6 6 28 8 47 6 46 27 122 37 135 5 6 8 12 7 15 -2 11 19 37 33 42
25 9 32 -3 26 -46z m-121 -368 c-14 -121 -20 -148 -43 -200 -23 -52 -43 -71
-74 -66 -22 3 -23 7 -22 78 2 86 25 150 73 199 17 17 40 31 51 31 18 0 20 -5
15 -42z m-80 -348 c16 -17 16 -24 6 -44 -14 -26 -30 -28 -55 -7 -21 18 -20 47
2 60 24 14 26 14 47 -9z m-205 -25 c18 -22 30 -83 16 -88 -18 -6 -116 -1 -116
6 0 4 0 17 0 30 0 53 69 89 100 52z m-409 -74 c3 -42 -4 -67 -24 -83 -21 -17
-23 -17 -39 2 -15 19 -15 23 8 65 25 44 53 52 55 16z"/>
</g>
</svg>
