<svg width="51" height="50" viewBox="0 0 51 50" fill="none" xmlns="http://www.w3.org/2000/svg">
<g clip-path="url(#clip0_123_211)">
<path d="M38.4313 0H11.8688C5.39669 0 0.150024 5.24666 0.150024 11.7188V38.2812C0.150024 44.7533 5.39669 50 11.8688 50H38.4313C44.9034 50 50.15 44.7533 50.15 38.2812V11.7188C50.15 5.24666 44.9034 0 38.4313 0Z" fill="#0277BD"/>
<path d="M10.6487 20.049L11.2076 26.2877H25.1688V20.049H10.6487ZM25.1686 7.42188H9.52502L10.0922 13.6605H25.1686V7.42188ZM25.1686 42.7424V36.2516L25.1412 36.2588L18.1932 34.3828L17.749 29.407H11.4864L12.3604 39.2027L25.1399 42.7504L25.1686 42.7424Z" fill="#EBEBEB"/>
<path d="M32.8293 26.2877L32.1051 34.3787L25.1471 36.2568V42.7473L37.9367 39.2027L38.0305 38.1486L39.4965 21.7244L39.6487 20.049L40.775 7.42188H25.1471V13.6605H33.9379L33.3703 20.049H25.1471V26.2877H32.8293Z" fill="white"/>
</g>
<defs>
<clipPath id="clip0_123_211">
<rect width="50" height="50" fill="white" transform="translate(0.150024)"/>
</clipPath>
</defs>
</svg>
