<svg width="51" height="50" viewBox="0 0 51 50" fill="none" xmlns="http://www.w3.org/2000/svg">
<g clip-path="url(#clip0_123_206)">
<path d="M38.4313 0H11.8688C5.39669 0 0.150024 5.24666 0.150024 11.7188V38.2812C0.150024 44.7533 5.39669 50 11.8688 50H38.4313C44.9034 50 50.15 44.7533 50.15 38.2812V11.7188C50.15 5.24666 44.9034 0 38.4313 0Z" fill="#E14E1D"/>
<path d="M9.52502 7.42188L11.2067 26.2877H32.8297L32.1041 34.3795L25.142 36.2619L18.193 34.3822L17.7283 29.1865H11.4664L12.3619 39.2023L25.1407 42.7516L37.9356 39.2023L39.651 20.0498H16.9125L16.3416 13.6611H40.2162L40.775 7.42188H9.52502Z" fill="white"/>
<path d="M25.15 7.42188H9.52502L11.2067 26.2877H25.15V20.0498H16.9125L16.3416 13.6611H25.15V7.42188ZM25.15 36.2592L25.142 36.2619L18.193 34.3822L17.7283 29.1865H11.4664L12.3619 39.2023L25.1407 42.7516L25.1502 42.7488L25.15 36.2592Z" fill="#EBEBEB"/>
</g>
<defs>
<clipPath id="clip0_123_206">
<rect width="50" height="50" fill="white" transform="translate(0.150024)"/>
</clipPath>
</defs>
</svg>
