<svg width="51" height="50" viewBox="0 0 51 50" fill="none" xmlns="http://www.w3.org/2000/svg">
<g clip-path="url(#clip0_123_198)">
<path d="M38.4313 0H11.8688C5.39669 0 0.150024 5.24666 0.150024 11.7188V38.2812C0.150024 44.7533 5.39669 50 11.8688 50H38.4313C44.9034 50 50.15 44.7533 50.15 38.2812V11.7188C50.15 5.24666 44.9034 0 38.4313 0Z" fill="#F0DB4F"/>
<path d="M13.2969 41.7835L17.1231 39.4679C17.8613 40.7767 18.5328 41.8841 20.1436 41.8841C21.6875 41.8841 22.6609 41.2802 22.6609 38.931V22.9548H27.3598V38.9974C27.3598 43.864 24.507 46.0792 20.3449 46.0792C16.5861 46.0792 14.4043 44.1325 13.2967 41.7831M29.9119 41.28L33.7377 39.0649C34.7449 40.7097 36.0539 41.9179 38.3695 41.9179C40.3166 41.9179 41.558 40.9444 41.558 39.6019C41.558 37.9909 40.2826 37.4202 38.1346 36.4808L36.9602 35.9771C33.5701 34.5341 31.3213 32.7216 31.3213 28.8954C31.3213 25.3712 34.0065 22.686 38.202 22.686C41.1891 22.686 43.3371 23.7267 44.8809 26.4452L41.2225 28.7946C40.4168 27.3515 39.5445 26.781 38.202 26.781C36.8258 26.781 35.9531 27.6536 35.9531 28.7946C35.9531 30.2042 36.8258 30.7749 38.8395 31.6478L40.0141 32.1511C44.008 33.863 46.2569 35.6079 46.2569 39.5347C46.2569 43.764 42.9342 46.0796 38.4703 46.0796C34.1072 46.0796 31.2879 43.9987 29.9119 41.28Z" fill="#323330"/>
</g>
<defs>
<clipPath id="clip0_123_198">
<rect width="50" height="50" fill="white" transform="translate(0.150024)"/>
</clipPath>
</defs>
</svg>
