<svg width="46" height="50" viewBox="0 0 46 50" fill="none" xmlns="http://www.w3.org/2000/svg">
<g clip-path="url(#clip0_123_233)">
<path d="M42.474 24.5512C42.474 21.988 40.396 19.9099 37.8327 19.9099C37.6677 19.9099 37.5051 19.9187 37.3447 19.9357L43.7196 1.13354H16.6285L22.9945 19.9192C22.9006 19.9133 22.8065 19.9103 22.7124 19.91C20.1491 19.91 18.071 21.9878 18.071 24.5514C18.071 26.6233 19.429 28.3775 21.303 28.9744C20.3133 30.6888 19.0677 32.2332 17.6535 33.5675C15.7306 35.3814 13.5299 36.757 11.1497 37.6046C8.31574 36.1487 6.97758 32.9111 8.185 30.0724C8.32139 29.7517 8.46062 29.4268 8.59366 29.1033C10.6467 28.6242 12.1767 26.7837 12.1767 24.5846C12.1767 22.0212 10.0986 19.9433 7.53518 19.9433C4.97175 19.9433 2.89383 22.0212 2.89383 24.5846C2.89383 26.1565 3.67581 27.545 4.87139 28.3846C3.72263 31.0002 2.03394 33.7376 1.50779 36.9102C0.877225 40.7123 1.50567 44.7484 4.79419 47.0277C12.4528 52.3358 20.7663 43.7371 29.5316 41.5754C32.7083 40.7922 36.1954 40.9184 38.9942 39.2975C41.096 38.0802 42.4816 36.0627 42.8748 33.7979C43.2634 31.5604 42.697 29.3327 41.3945 27.5263C42.0933 26.6926 42.4756 25.6391 42.474 24.5512Z" fill="#99425B"/>
<path d="M41.758 33.6039C41.4166 35.5703 40.2021 37.2878 38.4262 38.3166C36.7705 39.2754 34.7866 39.5617 32.6859 39.8645C31.5606 40.0267 30.397 40.1947 29.2603 40.4749C26.2546 41.2161 23.3433 42.6622 20.5281 44.0606C14.8938 46.8592 10.0281 49.2758 5.44013 46.0959C2.07935 43.7668 2.23447 39.4572 2.62599 37.0958C2.98889 34.9078 3.96999 32.8928 4.91857 30.9442C5.08018 30.613 5.24049 30.2812 5.39949 29.9488C5.87766 30.1399 6.37941 30.2658 6.89119 30.323C5.92546 33.5101 7.44419 36.9754 10.6316 38.6129L11.068 38.8371L11.5299 38.6726C14.0498 37.7751 16.3719 36.3352 18.4315 34.3919C19.7627 33.1359 20.9074 31.7463 21.8483 30.2615C22.1343 30.3046 22.4231 30.3263 22.7124 30.3263C25.638 30.3263 28.0606 28.1392 28.4355 25.3145C29.6331 25.2707 30.905 25.2703 32.1094 25.3141C32.4839 28.1392 34.9069 30.3265 37.8325 30.3265C39.0559 30.3265 40.1905 29.9431 41.1253 29.2919C41.7742 30.6203 42.0165 32.115 41.758 33.6039ZM7.53536 21.0769C9.46963 21.0769 11.0431 22.6505 11.0431 24.5848C11.0437 25.2543 10.8514 25.9098 10.4892 26.473C9.90621 27.3823 8.91504 28.0057 7.77635 28.0834C7.69667 28.0887 7.61628 28.0926 7.53536 28.0926C7.10426 28.0926 6.69136 28.014 6.30956 27.8712C5.54063 27.5821 4.89671 27.0336 4.48889 26.3205C4.18606 25.7922 4.02695 25.1938 4.02741 24.5848C4.02741 22.6505 5.60108 21.0769 7.53536 21.0769ZM19.2048 24.5514C19.2048 22.794 20.5039 21.3348 22.1919 21.0825C22.3619 21.0569 22.5357 21.0436 22.7126 21.0436C23.8371 21.0436 24.8384 21.5763 25.4804 22.4018C25.6412 22.6076 25.7786 22.8307 25.89 23.067C26.108 23.5314 26.2208 24.0383 26.2203 24.5514C26.2203 24.8318 26.1864 25.1044 26.1241 25.3659C25.7822 26.797 24.5619 27.891 23.0665 28.0415C22.9502 28.0532 22.8322 28.0592 22.7126 28.0592C22.0378 28.0597 21.3775 27.8645 20.8115 27.4972C19.8458 26.8716 19.2048 25.7852 19.2048 24.5514ZM33.8453 20.38C33.0819 21.1087 32.5326 22.0323 32.2567 23.0509C30.9346 23.0021 29.6111 23.0021 28.2889 23.0509C27.9921 21.9498 27.3769 20.9784 26.5491 20.2406L30.179 12.9011L33.8453 20.38ZM18.2096 2.26749H42.1384L36.4866 18.9362C36.2434 18.9945 36.0044 19.0685 35.7709 19.158L30.1878 7.76873L24.5889 19.0899C24.3448 19.0062 24.0954 18.9389 23.8423 18.8887L18.2096 2.26749ZM41.3403 24.5516C41.3403 24.9032 41.2878 25.2428 41.1912 25.5634C40.9619 26.3184 40.4858 26.9745 39.8391 27.4265C39.2513 27.839 38.5506 28.06 37.8325 28.0594C36.2129 28.0594 34.8467 26.9557 34.4449 25.461C34.3651 25.1644 34.3247 24.8587 34.3248 24.5516C34.3248 24.0721 34.4216 23.6148 34.5965 23.1982C34.6867 22.9851 34.7979 22.7814 34.9283 22.5901C35.5596 21.6583 36.6248 21.0438 37.8325 21.0438C37.9433 21.0438 38.0525 21.0495 38.1608 21.0597C39.9417 21.2256 41.3403 22.7279 41.3403 24.5516ZM43.6078 24.5516C43.6078 21.7322 41.5763 19.3797 38.9007 18.8772L45.3009 0H15.0474L21.4576 18.9154C18.8749 19.4901 16.9377 21.7981 16.9377 24.5514C16.9377 26.6189 18.0302 28.4348 19.6677 29.4553C18.8801 30.6288 17.9461 31.733 16.8758 32.7429C15.1783 34.3442 13.2873 35.5587 11.2486 36.3578C9.19508 35.0678 8.32705 32.6352 9.22847 30.5161L9.29914 30.35L9.43165 30.0383C11.6871 29.2516 13.3103 27.1049 13.3103 24.5848C13.3103 21.4004 10.7196 18.8097 7.53536 18.8097C4.35091 18.8097 1.76027 21.4004 1.76027 24.5848C1.76027 26.192 2.42105 27.6475 3.4843 28.6956C3.28599 29.1157 3.08469 29.5345 2.88041 29.9518C1.90815 31.9484 0.806383 34.2115 0.389598 36.7247C-0.437964 41.7159 0.897019 45.7058 4.14879 47.9594C6.12193 49.3269 8.12582 49.8647 10.1422 49.8647C13.9391 49.8647 17.7801 47.9571 21.5368 46.091C24.2422 44.7474 27.04 43.3578 29.8034 42.6761C30.8317 42.4226 31.8896 42.27 33.0097 42.1085C35.2311 41.788 37.5279 41.4567 39.5626 40.2784C41.9211 38.9124 43.5354 36.6208 43.9919 33.9919C44.3838 31.7348 43.9122 29.4742 42.762 27.5569C43.3162 26.6525 43.609 25.6121 43.6078 24.5514" fill="white"/>
</g>
<defs>
<clipPath id="clip0_123_233">
<rect width="45.23" height="50" fill="white" transform="translate(0.150024)"/>
</clipPath>
</defs>
</svg>
