<svg width="57" height="50" viewBox="0 0 57 50" fill="none" xmlns="http://www.w3.org/2000/svg">
<g clip-path="url(#clip0_123_196)">
<path d="M46.1634 16.1894C45.566 15.9844 44.9634 15.7945 44.3564 15.6199C44.4584 15.2032 44.5523 14.7916 44.6356 14.3872C46.0036 7.74667 45.1093 2.39689 42.0547 0.635488C39.1259 -1.05311 34.3362 0.707637 29.499 4.91751C29.0222 5.33315 28.5561 5.76077 28.1009 6.19996C27.7962 5.90791 27.4862 5.62153 27.1709 5.34097C22.1012 0.839655 17.0196 -1.05749 13.9683 0.708953C11.0422 2.40281 10.1757 7.43198 11.4073 13.7254C11.5298 14.3487 11.6682 14.9688 11.8222 15.585C11.1029 15.7894 10.4088 16.007 9.74458 16.2386C3.80072 18.3109 0.00488281 21.5585 0.00488281 24.9272C0.00488281 28.4063 4.07988 31.896 10.2707 34.012C10.7726 34.1829 11.2786 34.3412 11.7884 34.4868C11.6229 35.1505 11.4759 35.8188 11.3476 36.4907C10.1735 42.675 11.0904 47.5853 14.0086 49.2684C17.0226 51.0065 22.0814 49.2201 27.0071 44.9142C27.4065 44.5641 27.7971 44.2042 28.1786 43.8346C28.6715 44.3102 29.1775 44.7719 29.6961 45.2193C34.4676 49.325 39.1799 50.9829 42.0952 49.2951C45.1064 47.5519 46.0851 42.2769 44.8145 35.8592C44.7144 35.3564 44.6022 34.8561 44.4779 34.3587C44.8332 34.2535 45.1819 34.1451 45.5218 34.0324C51.9577 31.9002 56.1452 28.4528 56.1452 24.9272C56.1452 21.5462 52.2268 18.2767 46.1634 16.1894ZM44.7676 31.7561C44.4606 31.8576 44.1457 31.9557 43.8246 32.0511C43.1141 29.8017 42.1553 27.41 40.9819 24.9388C42.1016 22.5265 43.0235 20.1653 43.7141 17.9307C44.2884 18.0969 44.8457 18.2721 45.383 18.457C50.5781 20.2456 53.747 22.8897 53.747 24.9272C53.747 27.0973 50.3246 29.9147 44.7676 31.7561ZM42.4619 36.325C43.0237 39.1627 43.1038 41.7285 42.7316 43.7344C42.3974 45.5368 41.7251 46.7383 40.8935 47.2197C39.1244 48.2438 35.3408 46.9127 31.2604 43.4013C30.778 42.9853 30.3073 42.5561 29.8487 42.114C31.4308 40.3839 33.0117 38.3728 34.5547 36.139C37.2687 35.8982 39.8327 35.5043 42.158 34.9668C42.27 35.4171 42.3713 35.8699 42.4619 36.325ZM19.1444 47.0427C17.4158 47.653 16.0391 47.6706 15.2069 47.1907C13.436 46.1695 12.6998 42.2267 13.704 36.9381C13.8234 36.3132 13.96 35.6917 14.1139 35.0743C16.4134 35.5831 18.9588 35.9489 21.6792 36.1695C23.2327 38.3552 24.8593 40.3642 26.4985 42.1234C26.1502 42.4605 25.7935 42.789 25.429 43.1085C23.2507 45.0125 21.068 46.3633 19.1444 47.0427ZM11.0465 31.7427C8.30905 30.807 6.0483 29.591 4.49874 28.264C3.1062 27.0717 2.40335 25.8877 2.40335 24.9272C2.40335 22.8829 5.45094 20.2754 10.534 18.5032C11.1509 18.2883 11.7965 18.0855 12.4665 17.8951C13.1691 20.1802 14.0906 22.5695 15.2027 24.9855C14.0762 27.4372 13.1415 29.8647 12.4321 32.1767C11.9667 32.0434 11.5048 31.8987 11.0465 31.7427ZM13.761 13.2647C12.706 7.87277 13.4066 3.80544 15.17 2.78461C17.0481 1.69733 21.2012 3.24755 25.5786 7.13439C25.864 7.38842 26.1448 7.6476 26.4209 7.9118C24.7898 9.66334 23.1781 11.6574 21.6384 13.8302C18.9981 14.075 16.4707 14.4679 14.147 14.9945C14.0038 14.4213 13.8751 13.8443 13.761 13.2647ZM37.9775 19.2447C37.4286 18.2967 36.8594 17.3605 36.2702 16.437C38.0615 16.6636 39.7777 16.9642 41.3893 17.3318C40.9055 18.8826 40.3025 20.5039 39.5926 22.1662C39.0737 21.1817 38.5352 20.2077 37.9775 19.2447ZM28.102 9.62606C29.2082 10.8245 30.3161 12.1625 31.4058 13.6142C29.1952 13.5098 26.981 13.5094 24.7705 13.6129C25.8612 12.1745 26.9786 10.8383 28.102 9.62606ZM18.1632 19.2609C17.6124 20.2162 17.084 21.1841 16.5783 22.164C15.8801 20.5076 15.2825 18.8789 14.7946 17.3061C16.3963 16.9478 18.1044 16.6548 19.8843 16.4324C19.2885 17.3616 18.7147 18.3048 18.1632 19.2609ZM19.9354 33.5925C18.0965 33.3872 16.3628 33.1094 14.7615 32.7607C15.2571 31.1598 15.8678 29.4965 16.5812 27.8046C17.0888 28.7852 17.6195 29.7537 18.1726 30.7094C18.7415 31.6918 19.3305 32.6541 19.9354 33.5925ZM28.1683 40.3973C27.0314 39.171 25.8976 37.8142 24.7904 36.355C25.8654 36.3971 26.9612 36.4186 28.0751 36.4186C29.2194 36.4186 30.3505 36.3929 31.4639 36.3434C30.3707 37.8289 29.2669 39.1877 28.1683 40.3973ZM39.6152 27.7182C40.3656 29.4287 40.9981 31.0833 41.5003 32.6568C39.8726 33.0282 38.1152 33.3274 36.2634 33.5495C36.8568 32.6088 37.4314 31.6565 37.9869 30.6929C38.5517 29.7136 39.0946 28.7217 39.6152 27.7182ZM35.9095 29.4947C35.0591 30.972 34.1609 32.4212 33.2163 33.8401C31.5052 33.9613 29.7904 34.0215 28.0751 34.0206C26.3279 34.0206 24.6286 33.9662 22.9922 33.86C22.0229 32.4444 21.1076 30.9927 20.2481 29.5079C19.3926 28.0309 18.5938 26.522 17.8529 24.9844C18.5919 23.4464 19.3886 21.9368 20.2411 20.4587L20.2408 20.459C21.093 18.9805 22.0011 17.5349 22.963 16.1254C24.6325 15.9991 26.3446 15.9333 28.0748 15.9333C29.813 15.9333 31.5275 15.9997 33.1966 16.1269C34.1488 17.5344 35.051 18.9749 35.9016 20.446C36.7569 21.9208 37.5641 23.4231 38.3218 24.9504C37.5719 26.4933 36.7673 28.0091 35.9095 29.4947ZM40.8569 2.71312C42.7367 3.79733 43.4678 8.16948 42.2867 13.903C42.2112 14.2688 42.1266 14.6414 42.0345 15.0193C39.7051 14.4815 37.1759 14.0818 34.5279 13.8333C32.9854 11.6366 31.3869 9.63943 29.7823 7.91049C30.2028 7.50512 30.6334 7.11026 31.0735 6.72628C35.2183 3.11948 39.0919 1.69536 40.8569 2.71312ZM28.0751 19.914C30.8437 19.914 33.0882 22.1585 33.0882 24.9272C33.0882 27.6958 30.8437 29.9403 28.0751 29.9403C25.3064 29.9403 23.0619 27.6958 23.0619 24.9272C23.0619 22.1585 25.3064 19.914 28.0751 19.914Z" fill="#00D8FF"/>
</g>
<defs>
<clipPath id="clip0_123_196">
<rect width="56.15" height="50" fill="white"/>
</clipPath>
</defs>
</svg>
