<svg width="51" height="50" viewBox="0 0 51 50" fill="none" xmlns="http://www.w3.org/2000/svg">
<g clip-path="url(#clip0_123_239)">
<path d="M49.171 20.2773C50.4009 25.0678 45.1175 30.6777 38.5095 29.0883C46.9261 22.9668 43.078 15.1256 38.6298 11.3641C33.8066 7.28437 38.4759 5.97734 40.0316 7.4543C39.9941 4.47441 29.5023 5.14785 38.6792 14.7168C43.3941 19.6316 37.8321 30.5039 31.2064 22.2363C31.1517 22.1613 31.1021 22.0828 31.0583 22.0014C32.1282 21.557 33.007 20.3484 33.007 18.358C33.0174 17.6534 32.8774 16.9546 32.5962 16.3084C33.3622 14.7484 34.0652 12.8846 34.0652 10.5506C34.0652 4.97188 30.446 0 25.378 0C20.3097 0 16.6909 4.97207 16.6909 10.5504C16.6909 12.8844 17.3958 14.7504 18.1616 16.3104C17.8795 16.9577 17.7395 17.658 17.7511 18.3641C17.7511 20.3543 18.6277 21.5629 19.6997 22.0072C19.6552 22.0889 19.605 22.1674 19.5497 22.2422C12.9237 30.5098 7.36027 19.6357 12.0769 14.7227C21.2556 5.15371 10.7599 4.48242 10.7224 7.46016C12.2782 5.98516 16.9495 7.29219 12.1241 11.3699C7.67609 15.1217 3.83195 22.9648 12.2446 29.0941C5.6384 30.6838 0.357147 25.0738 1.58312 20.2834C-0.561017 24.2326 1.02844 31.7006 9.53976 33.1422C0.479413 35.2215 3.20598 47.7326 9.58527 45.7303C4.11418 45.4084 4.72238 39.1113 6.93566 37.2158C9.3839 35.1168 12.4796 36.5957 18.1243 35.6498C18.063 40.7326 23.0128 43.4635 20.4165 46.374C17.6661 49.4545 13.9011 46.1273 14.4816 43.1002C11.8558 48.5344 19.3325 52.8588 22.6101 46.5479C25.1353 41.6924 18.4245 32.9229 25.3741 32.9229C32.3237 32.9229 25.6111 41.6824 28.1382 46.5479C31.4155 52.8666 38.8925 48.5342 36.2665 43.1002C36.8411 46.1293 33.082 49.4545 30.3337 46.374C27.7491 43.4557 32.6853 40.7246 32.6318 35.642C38.2743 36.5879 41.3702 35.1068 43.8165 37.2078C46.0337 39.1035 46.6398 45.4006 41.1689 45.7225C47.5579 47.7326 50.2825 35.2193 41.2183 33.1342C49.7237 31.6947 51.3152 24.2246 49.171 20.2773Z" fill="url(#paint0_radial_123_239)"/>
<path d="M7.04017 37.595C9.48646 35.4959 12.296 37.3323 18.13 35.642C18.13 35.642 18.2111 34.0821 18.2863 32.925C16.5093 34.2637 13.2595 34.0899 10.5468 34.487C1.61869 35.7961 3.60091 46.5202 9.58529 45.7303C5.15677 45.0038 4.82513 39.4926 7.04037 37.595" fill="url(#paint1_linear_123_239)"/>
<path d="M18.6296 29.9096C19.6169 28.3832 19.7394 25.9228 17.7433 28.1602C10.9988 35.717 -0.703203 29.5424 1.58898 20.2793C-0.878789 23.6303 0.305782 32.3918 9.54563 33.1361C11.8655 32.366 16.6415 32.9623 18.6296 29.9096Z" fill="url(#paint2_linear_123_239)"/>
<path d="M12.2466 29.0882C12.2466 29.0882 14.6158 28.8452 16.1519 27.0403C9.90698 29.3626 4.78355 19.2899 12.598 12.4815C18.6751 7.19324 12.4894 5.10828 10.7166 7.45418C11.3701 6.80848 16.6652 7.17371 11.84 11.2532C7.39956 15.0149 2.69468 22.8245 12.2466 29.0882Z" fill="url(#paint3_radial_123_239)"/>
<path d="M29.8697 47.3929C27.2695 44.4824 29.8697 41.8541 30.3474 37.2671C30.6634 34.1728 29.5084 30.7507 25.38 30.7507C21.2517 30.7507 20.0949 34.1787 20.4127 37.2671C20.8845 41.8541 23.4886 44.4824 20.8904 47.3929C18.1421 50.4714 13.0029 47.2626 14.4875 43.0921C10.8332 49.1603 20.1085 52.9378 23.3859 46.6287C25.9093 41.7712 18.4302 33.2585 25.38 33.2585C32.3298 33.2585 24.8507 41.7712 27.3742 46.6287C30.6515 52.9376 39.925 49.1603 36.2707 43.0921C37.7533 47.2626 32.6179 50.4695 29.8697 47.3929Z" fill="url(#paint4_radial_123_239)"/>
<path d="M40.2132 34.4889C37.4986 34.094 34.2468 34.2637 32.4738 32.925C32.5509 34.0821 32.63 35.644 32.63 35.644C38.462 37.3323 41.2716 35.494 43.7179 37.595C45.9329 39.4907 45.6013 45.0038 41.165 45.7225C47.1572 46.5202 49.1413 35.7961 40.2132 34.4889Z" fill="url(#paint5_linear_123_239)"/>
<path d="M49.171 20.2773C51.4632 29.5385 39.7613 35.717 33.0148 28.1563C31.0187 25.9189 31.1353 28.3812 32.1304 29.9076C34.1185 32.9604 38.8925 32.3641 41.2124 33.1342C50.4542 32.3918 51.6388 23.6283 49.171 20.2773Z" fill="url(#paint6_linear_123_239)"/>
<path d="M34.6081 27.0405C36.1443 28.8454 38.5114 29.0884 38.5114 29.0884C48.0634 22.8325 43.3585 15.0132 38.9064 11.2534C34.079 7.17392 39.3741 6.80869 40.0277 7.45439C38.2507 5.10849 32.0691 7.19365 38.1462 12.4817C45.9743 19.2903 40.8511 29.3626 34.6081 27.0405Z" fill="url(#paint7_radial_123_239)"/>
<path opacity="0.3" d="M27.9466 6.9407C27.9466 8.48094 25.38 8.48094 25.38 6.9407C25.38 5.40047 27.9466 5.40242 27.9466 6.9407ZM23.9052 8.35066C23.9052 9.41102 22.1421 9.41102 22.1421 8.35066C22.1421 7.29012 23.9052 7.29012 23.9052 8.35066ZM25.0306 3.47332C25.0306 4.53562 23.2656 4.53562 23.2656 3.47332C23.2656 2.41082 25.0306 2.42078 25.0306 3.47332ZM21.3542 10.9987C21.3542 11.5298 20.4718 11.5298 20.4718 10.9987C20.4718 10.4675 21.3542 10.4675 21.3542 10.9987ZM21.5222 5.78562C21.5222 6.52 20.3019 6.52 20.3019 5.78562C20.3019 5.05105 21.5222 5.05301 21.5222 5.78562ZM25.0306 12.2446C25.0306 12.9809 23.8105 12.9809 23.8105 12.2446C23.8105 11.5081 25.0306 11.5139 25.0306 12.2446Z" fill="#4B1313"/>
<path d="M22.2447 18.3581C22.2447 21.1583 19.0701 21.1583 19.0701 18.3581C19.0701 15.5581 22.2447 15.5581 22.2447 18.3581Z" fill="#302D3B"/>
<path d="M20.6179 17.6454C20.624 17.7131 20.6159 17.7813 20.5941 17.8458C20.5724 17.9102 20.5374 17.9693 20.4916 18.0195C20.4457 18.0697 20.3899 18.1098 20.3277 18.1372C20.2654 18.1646 20.1982 18.1787 20.1302 18.1787C20.0622 18.1787 19.995 18.1646 19.9328 18.1372C19.8706 18.1098 19.8147 18.0697 19.7689 18.0195C19.723 17.9693 19.6881 17.9102 19.6663 17.8458C19.6446 17.7813 19.6365 17.7131 19.6425 17.6454C19.6365 17.5777 19.6446 17.5095 19.6663 17.445C19.6881 17.3806 19.723 17.3215 19.7689 17.2713C19.8147 17.2211 19.8706 17.181 19.9328 17.1536C19.995 17.1262 20.0622 17.1121 20.1302 17.1121C20.1982 17.1121 20.2654 17.1262 20.3277 17.1536C20.3899 17.181 20.4457 17.2211 20.4916 17.2713C20.5374 17.3215 20.5724 17.3806 20.5941 17.445C20.6159 17.5095 20.624 17.5777 20.6179 17.6454Z" fill="#6F828A"/>
<path d="M31.698 18.3581C31.698 21.1583 28.5232 21.1583 28.5232 18.3581C28.5232 15.5581 31.698 15.5581 31.698 18.3581Z" fill="#302D3B"/>
<path d="M30.0613 17.6454C30.0673 17.7131 30.0592 17.7813 30.0375 17.8458C30.0157 17.9102 29.9808 17.9693 29.9349 18.0195C29.889 18.0697 29.8332 18.1098 29.771 18.1372C29.7088 18.1646 29.6416 18.1787 29.5736 18.1787C29.5056 18.1787 29.4383 18.1646 29.3761 18.1372C29.3139 18.1098 29.2581 18.0697 29.2122 18.0195C29.1663 17.9693 29.1314 17.9102 29.1097 17.8458C29.0879 17.7813 29.0798 17.7131 29.0859 17.6454C29.0798 17.5777 29.0879 17.5095 29.1097 17.445C29.1314 17.3806 29.1663 17.3215 29.2122 17.2713C29.2581 17.2211 29.3139 17.181 29.3761 17.1536C29.4383 17.1262 29.5056 17.1121 29.5736 17.1121C29.6416 17.1121 29.7088 17.1262 29.771 17.1536C29.8332 17.181 29.889 17.2211 29.9349 17.2713C29.9808 17.3215 30.0157 17.3806 30.0375 17.445C30.0592 17.5095 30.0673 17.5777 30.0613 17.6454Z" fill="#6F828A"/>
<path d="M23.9052 23.9304C23.9052 25.5259 23.773 26.8173 23.6208 26.8173C23.4689 26.8173 23.3464 25.5259 23.3484 23.9325C23.3503 22.3388 23.4806 21.0454 23.6347 21.0454C23.7886 21.0454 23.9091 22.3349 23.9052 23.9304Z" fill="#9E1C20"/>
<path d="M25.4314 27.3189C25.547 27.3189 25.6407 25.801 25.6407 23.9285C25.6407 22.056 25.547 20.5381 25.4314 20.5381C25.3157 20.5381 25.222 22.056 25.222 23.9285C25.222 25.801 25.3157 27.3189 25.4314 27.3189Z" fill="#9E1C20"/>
<path d="M27.4097 23.893C27.4097 25.449 27.2833 26.7107 27.1333 26.7107C26.9831 26.7107 26.8706 25.4529 26.8726 23.8949C26.8745 22.3369 27.0029 21.0771 27.149 21.0771C27.295 21.0771 27.4156 22.3369 27.4097 23.893Z" fill="#9E1C20"/>
<path d="M39.2558 28.3397C38.9281 27.9053 40.8353 26.4718 41.1669 26.9081C41.4986 27.3444 39.5816 28.7761 39.2558 28.3397Z" fill="#F389A4"/>
<path d="M39.7296 28.0713C39.5816 27.8738 40.6261 27.084 40.7759 27.2814C40.9261 27.4787 39.8796 28.2707 39.7296 28.0713Z" fill="#E34E70"/>
<path d="M40.3851 26.4302C39.9902 26.0513 41.4413 24.5603 41.8324 24.9394C42.2232 25.3185 40.7681 26.8114 40.3851 26.4302Z" fill="#F389A4"/>
<path d="M40.7562 26.1402C40.5765 25.9663 41.3702 25.1529 41.546 25.3247C41.7218 25.4966 40.9339 26.314 40.7562 26.1402Z" fill="#E34E70"/>
<path d="M42.4405 23.6641C41.9191 23.5039 42.5253 21.5156 43.0464 21.6754C43.5679 21.8355 42.9517 23.8258 42.4404 23.6639" fill="#F7B3C5"/>
<path d="M42.6437 23.2333C42.4048 23.1603 42.7384 22.0743 42.9734 22.1454C43.2083 22.2165 42.8787 23.3064 42.6437 23.2333Z" fill="#E34E70"/>
<path d="M37.1077 28.2668C36.8767 27.7731 38.9714 26.7938 39.2005 27.2893C39.4294 27.785 37.3366 28.7604 37.1077 28.2668Z" fill="#F389A4"/>
<path d="M37.621 28.1088C37.5163 27.8817 38.6595 27.3467 38.7661 27.5717C38.8728 27.7969 37.7138 28.334 37.621 28.1088Z" fill="#E34E70"/>
<path d="M42.3595 25.451C41.9034 25.1567 43.0327 23.4092 43.4868 23.7075C43.9409 24.0055 42.8194 25.7471 42.3595 25.451Z" fill="#F7B3C5"/>
<path d="M42.6773 25.0936C42.4681 24.9572 43.0861 24.0037 43.2933 24.1379C43.5005 24.2721 42.8847 25.2277 42.6773 25.0936Z" fill="#E34E70"/>
<path d="M33.9308 31.0767C34.1421 30.5376 36.1027 31.3097 35.9054 31.8509C35.7078 32.3919 33.7177 31.6179 33.9308 31.0767Z" fill="#F389A4"/>
<path d="M34.3495 31.3156C34.4462 31.0687 35.5222 31.4933 35.4277 31.738C35.3327 31.9829 34.2507 31.5681 34.3495 31.3156Z" fill="#E34E70"/>
<path d="M36.6931 31.7105C36.8411 31.0371 38.865 31.4853 38.7187 32.1588C38.5726 32.832 36.5429 32.3838 36.6931 31.7105Z" fill="#F389A4"/>
<path d="M37.1333 31.908C37.2025 31.5981 38.3179 31.8448 38.2429 32.1508C38.1679 32.4569 37.0642 32.2041 37.1333 31.908Z" fill="#E34E70"/>
<path d="M32.2171 28.7309C32.7148 28.182 34.4245 29.7398 33.929 30.2848C33.4333 30.8297 31.7196 29.2777 32.2171 28.7309Z" fill="#F389A4"/>
<path d="M32.5409 29.1435C32.77 28.8928 33.7038 29.7457 33.4769 29.9945C33.2497 30.2434 32.314 29.4021 32.5409 29.1435Z" fill="#E34E70"/>
<path d="M39.4196 32.4668C39.4196 31.9968 41.1728 32.0324 41.163 32.5023C41.1532 32.9722 39.4077 32.9386 39.4196 32.4668Z" fill="#F7B3C5"/>
<path d="M39.8105 32.5359C39.8105 32.3187 40.7681 32.3384 40.7661 32.5515C40.7642 32.765 39.8066 32.7492 39.8105 32.5359Z" fill="#E34E70"/>
<path d="M32.9437 34.3171C33.0917 33.6438 35.1156 34.0921 34.9714 34.7653C34.8273 35.4388 32.7956 34.9905 32.9437 34.3171Z" fill="#F389A4"/>
<path d="M33.3839 34.5047C33.453 34.1946 34.5687 34.4395 34.4937 34.7475C34.4187 35.0555 33.315 34.8088 33.3841 34.5047" fill="#E34E70"/>
<path d="M24.1479 32.1191C24.1479 31.43 26.6001 31.3964 26.6101 32.0876C26.6198 32.7786 24.1579 32.8103 24.1479 32.1193" fill="#F389A4"/>
<path d="M24.7068 32.2003C24.7068 31.8845 26.0474 31.8667 26.0533 32.1806C26.0591 32.4946 24.7107 32.5144 24.7068 32.2003Z" fill="#E34E70"/>
<path d="M27.3247 32.9447C27.8044 32.449 29.2991 33.9004 28.8114 34.3939C28.3237 34.8877 26.845 33.4402 27.3247 32.9447Z" fill="#F389A4"/>
<path d="M27.5991 33.3355C27.8222 33.1086 28.6337 33.9023 28.4165 34.1254C28.1993 34.3486 27.382 33.5588 27.5991 33.3355Z" fill="#E34E70"/>
<path d="M29.6999 34.9055C30.387 34.943 30.2724 37.0184 29.5833 36.9809C28.8943 36.9434 29.0109 34.8699 29.6999 34.9055Z" fill="#F7B3C5"/>
<path d="M29.5853 35.3696C29.9013 35.3872 29.838 36.5227 29.5261 36.5049C29.2142 36.4874 29.2714 35.3518 29.5853 35.3696Z" fill="#E34E70"/>
<path d="M28.5173 37.0006C29.1925 37.1387 28.7779 39.1725 28.1027 39.0403C27.4275 38.9081 27.8421 36.8645 28.5173 37.0006Z" fill="#F7B3C5"/>
<path d="M28.3415 37.4368C28.6515 37.5021 28.4245 38.6216 28.1165 38.5544C27.8085 38.4874 28.0316 37.3815 28.3415 37.4368Z" fill="#E34E70"/>
<path d="M29.1847 39.1667C29.8599 39.305 29.4452 41.3389 28.77 41.2046C28.0946 41.0704 28.5095 39.0305 29.1847 39.1667Z" fill="#F7B3C5"/>
<path d="M29.005 39.609C29.315 39.6723 29.0898 40.7938 28.7798 40.7247C28.4699 40.6555 28.699 39.5459 29.005 39.609Z" fill="#E34E70"/>
<path d="M27.6386 41.4259C28.3118 41.562 27.8993 43.5977 27.2241 43.4616C26.5487 43.3253 26.9595 41.2876 27.6386 41.4257" fill="#F7B3C5"/>
<path d="M27.4569 41.8681C27.7689 41.9333 27.5419 43.0528 27.2339 42.9837C26.9259 42.9146 27.1569 41.805 27.4569 41.8681Z" fill="#E34E70"/>
<path d="M28.0216 43.8071C28.7087 43.8329 28.6318 45.91 27.9427 45.8845C27.2536 45.8589 27.3306 43.7815 28.0216 43.8071Z" fill="#F7B3C5"/>
<path d="M27.9152 44.275C28.2329 44.2889 28.1896 45.4242 27.8755 45.4125C27.5616 45.4006 27.603 44.2633 27.9152 44.275Z" fill="#E34E70"/>
<path d="M27.6781 46.7493C28.2132 46.3149 29.3089 47.6655 28.7718 48.1001C28.2349 48.5344 27.1431 47.1817 27.6781 46.7493Z" fill="#F7B3C5"/>
<path d="M27.8577 47.1125C28.1046 46.9153 28.7029 47.6535 28.4501 47.8512C28.1974 48.0485 27.615 47.3102 27.8577 47.1125Z" fill="#E34E70"/>
<path d="M29.4827 48.0288C29.7591 47.5273 31.0228 48.2261 30.7464 48.7237C30.4699 49.2214 29.2064 48.5304 29.4827 48.0288Z" fill="#F389A4"/>
<path d="M29.7335 48.25C29.8599 48.0189 30.5509 48.4 30.4265 48.627C30.3021 48.8543 29.6072 48.4791 29.7335 48.25Z" fill="#E34E70"/>
<path d="M31.078 49.5573C31.1195 49.0377 32.3593 49.1385 32.3159 49.6579C32.2724 50.1774 31.0347 50.0747 31.078 49.5573Z" fill="#F389A4"/>
<path d="M31.3525 49.6441C31.372 49.4069 32.0493 49.4605 32.0316 49.6974C32.014 49.9343 31.3327 49.8771 31.3525 49.6441Z" fill="#E34E70"/>
<path d="M32.8116 49.2471C32.7009 48.7852 33.7986 48.5186 33.9132 48.9807C34.0277 49.4426 32.9239 49.7092 32.8116 49.2471Z" fill="#F389A4"/>
<path d="M33.08 49.2433C33.0306 49.0341 33.6327 48.8878 33.6841 49.0952C33.7355 49.3026 33.1255 49.4546 33.08 49.2433Z" fill="#E34E70"/>
<path d="M34.4738 49.2847C34.2921 48.8443 35.3405 48.4097 35.5202 48.8502C35.6999 49.2906 34.6595 49.7152 34.4739 49.2847" fill="#F389A4"/>
<path d="M34.7325 49.2314C34.6515 49.034 35.2241 48.7949 35.307 48.9924C35.39 49.1898 34.8153 49.4328 34.7325 49.2314Z" fill="#E34E70"/>
<path d="M35.4097 48.1118C35.062 47.788 35.8363 46.9567 36.1818 47.2806C36.5273 47.6044 35.7572 48.4357 35.4097 48.1118Z" fill="#F389A4"/>
<path d="M35.6288 47.9638C35.4708 47.8138 35.8915 47.3595 36.0493 47.5075C36.2073 47.6558 35.7868 48.1118 35.6288 47.9638Z" fill="#E34E70"/>
<path d="M36.687 46.6269C36.231 46.4964 36.547 45.4044 37.0031 45.5388C37.4591 45.673 37.1411 46.7612 36.687 46.6269Z" fill="#F389A4"/>
<path d="M36.8155 46.3979C36.6181 46.3366 36.7798 45.7403 36.9872 45.8055C37.1944 45.8706 37.0286 46.461 36.8153 46.3979" fill="#E34E70"/>
<path d="M35.465 35.9698C35.5241 35.2847 37.5933 35.4624 37.5321 36.1515C37.471 36.8407 35.4038 36.6591 35.465 35.9698Z" fill="#F389A4"/>
<path d="M35.9249 36.098C35.9546 35.7822 37.0839 35.8828 37.0564 36.1949C37.0286 36.5068 35.8974 36.4101 35.9249 36.098Z" fill="#E34E70"/>
<path d="M37.9488 35.247C37.9624 34.5697 40.0376 34.6113 40.0218 35.2904C40.0062 35.9697 37.9329 35.9263 37.9488 35.247Z" fill="#F7B3C5"/>
<path d="M38.4107 35.3438C38.4107 35.0319 39.5519 35.0574 39.546 35.3656C39.5402 35.6737 38.4107 35.6598 38.4107 35.3438Z" fill="#E34E70"/>
<path d="M40.3001 36.1061C40.4482 35.4546 42.2567 35.8673 42.1028 36.5227C41.9487 37.1784 40.1482 36.7616 40.3001 36.1061Z" fill="#F7B3C5"/>
<path d="M40.6892 36.2838C40.7581 35.9856 41.7454 36.2127 41.6763 36.5088C41.6072 36.8051 40.6201 36.5838 40.6892 36.2838Z" fill="#E34E70"/>
<path d="M42.8117 36.1554C43.1175 35.563 44.6281 36.337 44.3179 36.9452C44.0079 37.5535 42.5054 36.7536 42.8117 36.1554Z" fill="#FACFDA"/>
<path d="M43.1136 36.4082C43.2558 36.1336 44.0771 36.5621 43.9409 36.8307C43.8046 37.0992 42.9734 36.6807 43.1136 36.4082Z" fill="#E34E70"/>
<path d="M44.4028 37.8653C44.9025 37.6403 45.4751 38.9082 44.9736 39.1332C44.472 39.3582 43.9013 38.0926 44.4028 37.8655" fill="#FACFDA"/>
<path d="M44.4679 38.1833C44.697 38.0786 45.0089 38.7757 44.7839 38.8743C44.5589 38.9731 44.239 38.2839 44.4681 38.1833" fill="#E34E70"/>
<path d="M45.8027 39.3958C46.3496 39.3958 46.3456 40.7879 45.8027 40.778C45.2597 40.7682 45.2538 39.3938 45.8027 39.3958Z" fill="#FACFDA"/>
<path d="M45.7296 39.7117C45.9843 39.7117 45.9804 40.4718 45.7296 40.4718C45.4788 40.4718 45.4808 39.7097 45.7296 39.7117Z" fill="#E34E70"/>
<path d="M45.2677 41.1888C45.7554 41.2776 45.5263 42.5237 45.0366 42.4309C44.547 42.338 44.7761 41.1038 45.2677 41.1888Z" fill="#FACFDA"/>
<path d="M45.1511 41.4652C45.3783 41.5086 45.2519 42.1878 45.0288 42.1464C44.8056 42.1048 44.9261 41.4238 45.1511 41.4652Z" fill="#E34E70"/>
<path d="M45.321 42.9916C45.7158 43.2107 45.155 44.2099 44.7603 43.9789C44.3654 43.7478 44.9261 42.7683 45.3208 42.9916" fill="#FACFDA"/>
<path d="M45.1511 43.1872C45.3308 43.2898 45.0247 43.8349 44.8451 43.7321C44.6654 43.6294 44.9695 43.0864 45.1511 43.1872Z" fill="#E34E70"/>
<path d="M44.1482 44.3184C44.4226 44.5852 43.7435 45.2842 43.4691 45.0137C43.1947 44.743 43.8738 44.0481 44.1482 44.3184Z" fill="#FACFDA"/>
<path d="M43.9607 44.4409C44.087 44.5652 43.7138 44.9445 43.5896 44.8218C43.465 44.6995 43.8343 44.3185 43.9607 44.4409Z" fill="#E34E70"/>
<path d="M41.5124 32.1825C41.3564 31.5249 43.3763 31.0452 43.5341 31.7067C43.6921 32.3681 41.6704 32.846 41.5124 32.1825Z" fill="#F7B3C5"/>
<path d="M41.9921 32.1607C41.921 31.8566 43.0228 31.5959 43.0958 31.8961C43.1689 32.1963 42.0611 32.4609 41.9921 32.1607Z" fill="#E34E70"/>
<path d="M44.1007 32.3601C43.9034 31.7975 45.8618 31.1101 46.0593 31.675C46.2568 32.2396 44.2962 32.9269 44.1007 32.3601Z" fill="#FACFDA"/>
<path d="M44.5687 32.2773C44.4779 32.0165 45.556 31.6433 45.641 31.8999C45.7257 32.1568 44.6595 32.5361 44.5687 32.2773Z" fill="#E34E70"/>
<path d="M45.8679 30.8832C45.473 30.4389 47.005 29.0428 47.4079 29.4852C47.8107 29.9274 46.2687 31.3254 45.8679 30.8832Z" fill="#FACFDA"/>
<path d="M46.2667 30.6224C46.0831 30.4252 46.9261 29.6568 47.1077 29.8562C47.2894 30.0558 46.4503 30.8238 46.2667 30.6224Z" fill="#E34E70"/>
<path d="M48.3812 29.4516C47.8818 29.1198 49.0367 27.3901 49.5343 27.7217C50.0318 28.0536 48.8747 29.7832 48.3812 29.4516Z" fill="#FACFDA"/>
<path d="M48.7031 29.1021C48.4759 28.9482 49.1077 28.0064 49.3327 28.1544C49.5579 28.3024 48.93 29.2521 48.7031 29.1021Z" fill="#E34E70"/>
<path d="M49.09 26.9851C48.5294 26.774 49.2677 24.8308 49.8244 25.0402C50.3812 25.2495 49.6466 27.1984 49.09 26.9851Z" fill="#FACFDA"/>
<path d="M49.3269 26.5765C49.0702 26.4777 49.4749 25.4154 49.7218 25.5121C49.9685 25.6089 49.5816 26.6693 49.3269 26.5765Z" fill="#E34E70"/>
<path d="M50.1226 24.3017C49.6843 24.3511 49.5165 22.8226 49.9546 22.7734C50.3931 22.724 50.5628 24.2523 50.1226 24.3017Z" fill="#FACFDA"/>
<path d="M50.1404 23.9502C49.9429 23.97 49.8501 23.1348 50.0476 23.1151C50.2449 23.0954 50.3417 23.9266 50.1404 23.9502Z" fill="#E34E70"/>
<path d="M43.7948 22.0782C43.2558 22.0131 43.5085 19.9477 44.0476 20.0168C44.5866 20.086 44.3337 22.1453 43.7948 22.0782Z" fill="#F7B3C5"/>
<path d="M43.921 21.62C43.6724 21.5906 43.8126 20.4611 44.0574 20.4906C44.3023 20.5202 44.1679 21.6497 43.9212 21.62" fill="#E34E70"/>
<path d="M42.9874 20.4257C42.4464 20.471 42.2784 18.3977 42.8234 18.3542C43.3683 18.3108 43.5324 20.3821 42.9874 20.4257Z" fill="#F7B3C5"/>
<path d="M43.0187 19.9496C42.7701 19.9693 42.6812 18.8379 42.9281 18.8162C43.1747 18.7945 43.2677 19.9318 43.0189 19.9496" fill="#E34E70"/>
<path d="M43.5696 17.8468C43.0761 18.0739 42.2134 16.1841 42.7089 15.9571C43.2044 15.73 44.0673 17.6216 43.5696 17.8468Z" fill="#F7B3C5"/>
<path d="M43.4374 17.3905C43.2124 17.4931 42.7405 16.4624 42.9636 16.3577C43.1866 16.253 43.6644 17.2958 43.4374 17.3905Z" fill="#E34E70"/>
<path d="M41.9269 16.3262C41.4827 16.575 40.545 14.8848 40.9913 14.6379C41.4374 14.391 42.3751 16.0773 41.9269 16.3262Z" fill="#F7B3C5"/>
<path d="M41.7671 15.9134C41.5698 16.028 41.0523 15.1057 41.2558 14.9913C41.4591 14.8766 41.9765 15.7989 41.7671 15.9134Z" fill="#E34E70"/>
<path d="M41.623 14.2431C41.2441 14.5394 40.1542 13.1413 40.5371 12.8431C40.9201 12.5448 42.0079 13.939 41.623 14.2431Z" fill="#F7B3C5"/>
<path d="M41.4255 13.8875C41.2517 14.0238 40.6556 13.2595 40.8333 13.1234C41.0111 12.9871 41.6013 13.7513 41.4255 13.8875Z" fill="#E34E70"/>
<path d="M39.7927 13.3921C39.4275 13.7099 38.2706 12.3671 38.6378 12.0513C39.005 11.7353 40.154 13.0761 39.7927 13.3921Z" fill="#F7B3C5"/>
<path d="M39.5696 13.0483C39.4036 13.1946 38.78 12.456 38.9378 12.3159C39.0958 12.1757 39.7394 12.9042 39.5696 13.0483Z" fill="#E34E70"/>
<path d="M38.9617 11.603C38.6318 11.8874 37.6863 10.7894 38.0179 10.5052C38.3495 10.2208 39.2933 11.3167 38.9617 11.6028" fill="#F7B3C5"/>
<path d="M38.7898 11.3164C38.6378 11.4469 38.1204 10.8467 38.2726 10.7242C38.4245 10.6018 38.9398 11.1883 38.7898 11.3166" fill="#E34E70"/>
<path d="M37.3761 11.2494C37.005 11.4746 36.2526 10.2365 36.628 10.0094C37.003 9.78223 37.7532 11.0201 37.3761 11.2494Z" fill="#F389A4"/>
<path d="M37.2538 10.9395C37.0859 11.0422 36.6734 10.3668 36.8431 10.2621C37.013 10.1575 37.4236 10.8368 37.2538 10.9395Z" fill="#E34E70"/>
<path d="M37.2261 9.76245C36.8095 9.88491 36.4878 8.81069 36.9083 8.68628C37.3288 8.56186 37.6408 9.63608 37.2261 9.76245Z" fill="#F389A4"/>
<path d="M37.1984 9.50207C37.0011 9.5593 36.8331 8.97082 37.0247 8.90969C37.2161 8.84836 37.39 9.44485 37.1986 9.50207" fill="#E34E70"/>
<path d="M36.071 8.56605C35.6605 8.42191 36.0316 7.36331 36.4443 7.50941C36.857 7.6557 36.4835 8.7141 36.071 8.56605Z" fill="#F389A4"/>
<path d="M36.2074 8.34466C36.0101 8.28157 36.223 7.70091 36.4046 7.7681C36.5863 7.83528 36.3949 8.40989 36.2074 8.34466Z" fill="#E34E70"/>
<path d="M37.1155 7.34191C37.0464 6.91125 38.1521 6.73761 38.221 7.17003C38.2903 7.60246 37.1827 7.77824 37.1155 7.34191Z" fill="#F389A4"/>
<path d="M37.3742 7.35731C37.3425 7.16005 37.9488 7.06708 37.9783 7.26259C38.0079 7.4579 37.4058 7.55477 37.3742 7.35731Z" fill="#E34E70"/>
<path d="M11.5062 28.3397C11.832 27.9053 9.9267 26.4718 9.5931 26.9081C9.25951 27.3444 11.1785 28.7761 11.5062 28.3397Z" fill="#F389A4"/>
<path d="M11.0304 28.0713C11.1785 27.8738 10.1339 27.084 9.98412 27.2814C9.83393 27.4787 10.8804 28.2707 11.0304 28.0713Z" fill="#E34E70"/>
<path d="M10.3749 26.4302C10.7699 26.0513 9.3187 24.5603 8.92768 24.9394C8.53686 25.3185 9.99194 26.8114 10.3749 26.4302Z" fill="#F389A4"/>
<path d="M10.0038 26.1402C10.1835 25.9663 9.38978 25.1529 9.214 25.3247C9.03822 25.4966 9.82611 26.314 10.0038 26.1402Z" fill="#E34E70"/>
<path d="M8.31947 23.6641C8.84096 23.5039 8.23471 21.5156 7.71361 21.6754C7.19213 21.8355 7.80834 23.8258 8.31967 23.6639" fill="#F7B3C5"/>
<path d="M8.11634 23.2333C8.35521 23.1603 8.02162 22.0743 7.78666 22.1454C7.55169 22.2165 7.88138 23.3064 8.11634 23.2333Z" fill="#E34E70"/>
<path d="M13.6544 28.2668C13.8833 27.7731 11.7886 26.7938 11.5595 27.2893C11.3306 27.785 13.4234 28.7604 13.6544 28.2668Z" fill="#F389A4"/>
<path d="M13.1489 28.1088C13.2536 27.8817 12.1104 27.3467 12.0038 27.5717C11.8972 27.7969 13.0462 28.334 13.1489 28.1088Z" fill="#E34E70"/>
<path d="M8.40049 25.451C8.85655 25.1567 7.72725 23.4092 7.27315 23.7075C6.81905 24.0055 7.94053 25.7471 8.40049 25.451Z" fill="#F7B3C5"/>
<path d="M8.08272 25.0936C8.2919 24.9572 7.67393 24.0037 7.4667 24.1379C7.25948 24.2721 7.8753 25.2277 8.08272 25.0936Z" fill="#E34E70"/>
<path d="M16.9218 31.0177C16.689 30.4251 14.4677 31.2941 14.7007 31.8923C14.9337 32.4905 17.1567 31.614 16.9218 31.0177Z" fill="#F389A4"/>
<path d="M16.4499 31.2918C16.3413 31.0174 15.1273 31.4893 15.2318 31.7678C15.3365 32.0463 16.5566 31.5625 16.4499 31.2918Z" fill="#E34E70"/>
<path d="M14.0669 31.7105C13.9189 31.0371 11.895 31.4853 12.0413 32.1588C12.1874 32.832 14.2171 32.3838 14.0669 31.7105Z" fill="#F389A4"/>
<path d="M13.6267 31.908C13.5575 31.5981 12.4421 31.8448 12.5171 32.1508C12.5921 32.4569 13.6958 32.2041 13.6267 31.908Z" fill="#E34E70"/>
<path d="M18.5429 28.7309C18.0453 28.182 16.3355 29.7398 16.831 30.2848C17.3267 30.8297 19.0404 29.2777 18.5429 28.7309Z" fill="#F389A4"/>
<path d="M18.2191 29.1435C17.99 28.8928 17.0562 29.7457 17.2831 29.9945C17.5103 30.2434 18.446 29.4021 18.2191 29.1435Z" fill="#E34E70"/>
<path d="M11.6325 32.4134C11.6189 31.908 9.82803 31.9335 9.84385 32.4412C9.85948 32.9486 11.6464 32.9228 11.6325 32.4134Z" fill="#F7B3C5"/>
<path d="M11.2298 32.4845C11.2298 32.2514 10.2427 32.2692 10.2427 32.4981C10.2427 32.7274 11.2356 32.7175 11.2298 32.4845Z" fill="#E34E70"/>
<path d="M17.8163 34.3171C17.6683 33.6438 15.6445 34.0921 15.7886 34.7653C15.9327 35.4388 17.9644 34.9905 17.8163 34.3171Z" fill="#F389A4"/>
<path d="M17.3761 34.5047C17.3069 34.1946 16.1913 34.4395 16.2663 34.7475C16.3413 35.0555 17.4452 34.8088 17.3761 34.5047Z" fill="#E34E70"/>
<path d="M23.5419 33.0732C23.147 32.5083 21.445 33.6991 21.84 34.2579C22.2349 34.8167 23.9368 33.6398 23.5419 33.0732Z" fill="#F389A4"/>
<path d="M23.2081 33.4147C23.0245 33.1559 22.0968 33.8097 22.2745 34.0643C22.4521 34.319 23.3858 33.6714 23.2081 33.4147Z" fill="#E34E70"/>
<path d="M21.0601 34.9055C20.373 34.943 20.4876 37.0184 21.1767 36.9809C21.8657 36.9434 21.7491 34.8699 21.0601 34.9055Z" fill="#F7B3C5"/>
<path d="M21.1747 35.3696C20.8587 35.3872 20.922 36.5227 21.2339 36.5049C21.5458 36.4874 21.4886 35.3518 21.1747 35.3696Z" fill="#E34E70"/>
<path d="M22.2427 37.0006C21.5675 37.1387 21.9821 39.1725 22.6573 39.0403C23.3325 38.9081 22.9179 36.8645 22.2427 37.0006Z" fill="#F7B3C5"/>
<path d="M22.4185 37.4368C22.1085 37.5021 22.3354 38.6216 22.6435 38.5544C22.9515 38.4874 22.7284 37.3815 22.4185 37.4368Z" fill="#E34E70"/>
<path d="M21.5753 39.1667C20.9001 39.305 21.3148 41.3389 21.99 41.2046C22.6654 41.0704 22.2507 39.0305 21.5755 39.1667" fill="#F7B3C5"/>
<path d="M21.755 39.609C21.4451 39.6723 21.6703 40.7938 21.9802 40.7247C22.2902 40.6555 22.0611 39.5459 21.755 39.609Z" fill="#E34E70"/>
<path d="M23.1214 41.4259C22.4481 41.562 22.8606 43.5977 23.5358 43.4616C24.2112 43.3253 23.8005 41.2876 23.1214 41.4257" fill="#F7B3C5"/>
<path d="M23.3031 41.8681C22.9912 41.9333 23.2181 43.0528 23.5261 42.9837C23.8341 42.9146 23.6031 41.805 23.3031 41.8681Z" fill="#E34E70"/>
<path d="M22.7384 43.8071C22.0533 43.8329 22.1283 45.91 22.8173 45.8845C23.5064 45.8589 23.4294 43.7815 22.7384 43.8071Z" fill="#F7B3C5"/>
<path d="M22.8448 44.275C22.5271 44.2889 22.5704 45.4242 22.8845 45.4125C23.1984 45.4006 23.157 44.2633 22.8448 44.275Z" fill="#E34E70"/>
<path d="M23.0819 46.7493C22.5468 46.3149 21.4511 47.6655 21.9882 48.1001C22.5251 48.5344 23.6169 47.1817 23.0819 46.7493Z" fill="#F7B3C5"/>
<path d="M22.9022 47.1125C22.6554 46.9153 22.0571 47.6535 22.3099 47.8512C22.5626 48.0485 23.145 47.3102 22.9022 47.1125Z" fill="#E34E70"/>
<path d="M21.2773 48.0288C21.0009 47.5273 19.7373 48.2261 20.0136 48.7237C20.2902 49.2214 21.5537 48.5304 21.2773 48.0288Z" fill="#F389A4"/>
<path d="M21.0362 48.25C20.9101 48.0189 20.2191 48.4 20.3435 48.627C20.4679 48.8543 21.1527 48.4791 21.0362 48.25Z" fill="#E34E70"/>
<path d="M19.6819 49.5573C19.6405 49.0377 18.4007 49.1385 18.444 49.6579C18.4876 50.1774 19.7253 50.0747 19.6819 49.5573Z" fill="#F389A4"/>
<path d="M19.4075 49.6441C19.388 49.4069 18.7107 49.4605 18.7284 49.6974C18.746 49.9343 19.4273 49.8771 19.4075 49.6441Z" fill="#E34E70"/>
<path d="M17.9484 49.2471C18.0591 48.7852 16.9615 48.5186 16.8468 48.9807C16.7324 49.4426 17.8361 49.7092 17.9484 49.2471Z" fill="#F389A4"/>
<path d="M17.68 49.2433C17.7294 49.0341 17.1273 48.8878 17.0759 49.0952C17.0245 49.3026 17.6345 49.4546 17.68 49.2433Z" fill="#E34E70"/>
<path d="M16.2862 49.2847C16.4679 48.8443 15.4194 48.4097 15.2398 48.8502C15.0601 49.2906 16.1007 49.7152 16.2862 49.2847Z" fill="#F389A4"/>
<path d="M16.0275 49.2314C16.1085 49.034 15.5359 48.7949 15.4531 48.9924C15.3701 49.1898 15.9447 49.4328 16.0275 49.2314Z" fill="#E34E70"/>
<path d="M15.3503 48.1118C15.698 47.788 14.9237 46.9567 14.5782 47.2806C14.2327 47.6044 15.0028 48.4357 15.3503 48.1118Z" fill="#F389A4"/>
<path d="M15.1312 47.9638C15.2892 47.8138 14.8685 47.3595 14.7107 47.5075C14.5527 47.6558 14.9732 48.1118 15.1312 47.9638Z" fill="#E34E70"/>
<path d="M14.073 46.6269C14.5291 46.4964 14.213 45.4044 13.757 45.5388C13.3009 45.673 13.6189 46.7612 14.073 46.6269Z" fill="#F389A4"/>
<path d="M13.9444 46.3979C14.1419 46.3366 13.9802 45.7403 13.7728 45.8055C13.5655 45.8706 13.7311 46.461 13.9444 46.3979Z" fill="#E34E70"/>
<path d="M15.295 35.9698C15.2358 35.2847 13.1667 35.4624 13.2278 36.1515C13.289 36.8407 15.3561 36.6591 15.295 35.9698Z" fill="#F389A4"/>
<path d="M14.8351 36.098C14.8054 35.7822 13.6761 35.8828 13.7036 36.1949C13.7314 36.5068 14.8626 36.4101 14.8351 36.098Z" fill="#E34E70"/>
<path d="M12.8112 35.247C12.7976 34.5697 10.7224 34.6113 10.7382 35.2904C10.7538 35.9697 12.8271 35.9263 12.8112 35.247Z" fill="#F7B3C5"/>
<path d="M12.3494 35.3438C12.3494 35.0319 11.2082 35.0574 11.214 35.3656C11.2199 35.6737 12.3494 35.6598 12.3494 35.3438Z" fill="#E34E70"/>
<path d="M10.4599 36.1061C10.3118 35.4546 8.50518 35.8673 8.65714 36.5227C8.80928 37.1784 10.6118 36.7616 10.4599 36.1061Z" fill="#F7B3C5"/>
<path d="M10.0708 36.2838C10.0019 35.9856 9.01459 36.2127 9.08373 36.5088C9.15287 36.8051 10.14 36.5838 10.0708 36.2838Z" fill="#E34E70"/>
<path d="M7.94837 36.1554C7.64251 35.563 6.13196 36.337 6.44212 36.9452C6.75208 37.5535 8.25462 36.7536 7.94837 36.1554Z" fill="#FACFDA"/>
<path d="M7.6464 36.4082C7.50422 36.1336 6.68293 36.5621 6.81906 36.8307C6.95539 37.0992 7.78664 36.6807 7.6464 36.4082Z" fill="#E34E70"/>
<path d="M6.35717 37.8653C5.85756 37.6403 5.28491 38.9082 5.78647 39.1332C6.28803 39.3582 6.85874 38.0926 6.35717 37.8655" fill="#FACFDA"/>
<path d="M6.29214 38.1833C6.06304 38.0786 5.75112 38.7757 5.97612 38.8743C6.20112 38.9731 6.52104 38.2839 6.29194 38.1833" fill="#E34E70"/>
<path d="M4.95734 39.3958C4.41046 39.3958 4.41437 40.7879 4.95734 40.778C5.50031 40.7682 5.50617 39.3938 4.95734 39.3958Z" fill="#FACFDA"/>
<path d="M5.03037 39.7117C4.77569 39.7117 4.77959 40.4718 5.03037 40.4718C5.28116 40.4718 5.28116 39.7097 5.03037 39.7117Z" fill="#E34E70"/>
<path d="M5.49228 41.1888C5.00458 41.2776 5.23369 42.5237 5.72333 42.4309C6.21298 42.338 5.98388 41.1038 5.49228 41.1888Z" fill="#FACFDA"/>
<path d="M5.60891 41.4652C5.38176 41.5086 5.50813 42.1878 5.73118 42.1464C5.95442 42.1048 5.83391 41.4238 5.60891 41.4652Z" fill="#E34E70"/>
<path d="M5.43898 42.9916C5.04426 43.2107 5.605 44.2099 5.99973 43.9789C6.39465 43.7478 5.83371 42.7683 5.43898 42.9916Z" fill="#FACFDA"/>
<path d="M5.60888 43.1872C5.4292 43.2898 5.73525 43.8349 5.91494 43.7321C6.09463 43.6294 5.79052 43.0864 5.60888 43.1872Z" fill="#E34E70"/>
<path d="M6.61184 44.3184C6.33743 44.5852 7.00677 45.2842 7.29095 45.0137C7.57532 44.743 6.88626 44.0481 6.61184 44.3184Z" fill="#FACFDA"/>
<path d="M6.79931 44.4409C6.67295 44.5652 7.04619 44.9445 7.17041 44.8218C7.29502 44.6995 6.92568 44.3185 6.79931 44.4409Z" fill="#E34E70"/>
<path d="M9.24758 32.1825C9.40363 31.5249 7.38371 31.0452 7.2259 31.7067C7.06789 32.3681 9.08957 32.846 9.24758 32.1825Z" fill="#F7B3C5"/>
<path d="M8.76787 32.1607C8.83897 31.8566 7.73721 31.5959 7.66416 31.8961C7.59112 32.1963 8.69893 32.4609 8.76787 32.1607Z" fill="#E34E70"/>
<path d="M6.65931 32.3601C6.85658 31.7975 4.89818 31.1101 4.70072 31.675C4.50326 32.2396 6.46381 32.9269 6.65931 32.3601Z" fill="#FACFDA"/>
<path d="M6.19132 32.2773C6.28214 32.0165 5.20401 31.6433 5.11905 31.8999C5.03429 32.1568 6.1005 32.5361 6.19132 32.2773Z" fill="#E34E70"/>
<path d="M4.89211 30.8832C5.28703 30.4389 3.755 29.0428 3.35207 29.4852C2.94934 29.9274 4.49133 31.3254 4.89211 30.8832Z" fill="#FACFDA"/>
<path d="M4.4933 30.6224C4.67689 30.4252 3.83393 29.6568 3.65229 29.8562C3.47064 30.0558 4.30971 30.8238 4.4933 30.6224Z" fill="#E34E70"/>
<path d="M2.37884 29.4516C2.87825 29.1198 1.72337 27.3901 1.22572 27.7217C0.728255 28.0536 1.88529 29.7832 2.37884 29.4516Z" fill="#FACFDA"/>
<path d="M2.05695 29.1021C2.2841 28.9482 1.66203 28.0064 1.42726 28.1544C1.1923 28.3024 1.83 29.2521 2.05695 29.1021Z" fill="#E34E70"/>
<path d="M1.67007 26.9851C2.23062 26.774 1.49234 24.8308 0.935697 25.0402C0.378862 25.2495 1.11343 27.1984 1.67007 26.9851Z" fill="#FACFDA"/>
<path d="M1.43316 26.5765C1.6898 26.4777 1.28511 25.4154 1.03823 25.5121C0.791554 25.6089 1.17847 26.6693 1.43316 26.5765Z" fill="#E34E70"/>
<path d="M0.637417 24.3017C1.0757 24.3511 1.24347 22.8226 0.805386 22.7734C0.366909 22.724 0.197183 24.2523 0.637417 24.3017Z" fill="#FACFDA"/>
<path d="M0.619676 23.9502C0.817136 23.97 0.90991 23.1348 0.712449 23.1151C0.515183 23.0954 0.418308 23.9266 0.619676 23.9502Z" fill="#E34E70"/>
<path d="M6.96516 22.0782C7.50422 22.0131 7.25149 19.9477 6.71243 20.0168C6.17336 20.086 6.42629 22.1453 6.96516 22.0782Z" fill="#F7B3C5"/>
<path d="M6.839 21.62C7.08763 21.5906 6.9474 20.4611 6.70267 20.4906C6.45775 20.5202 6.59232 21.6497 6.839 21.62Z" fill="#E34E70"/>
<path d="M7.77255 20.4257C8.31357 20.471 8.48154 18.3977 7.93662 18.3542C7.39169 18.3108 7.22763 20.3821 7.77255 20.4257Z" fill="#F7B3C5"/>
<path d="M7.74133 19.9496C7.98996 19.9693 8.07883 18.8379 7.83196 18.8162C7.58528 18.7945 7.4925 19.9318 7.74133 19.9496Z" fill="#E34E70"/>
<path d="M7.19036 17.8468C7.68392 18.0739 8.54661 16.1841 8.0511 15.9571C7.5556 15.73 6.69271 17.6216 7.19036 17.8468Z" fill="#F7B3C5"/>
<path d="M7.32256 17.3905C7.54756 17.4931 8.01943 16.4624 7.79639 16.3577C7.57334 16.253 7.09561 17.2958 7.32256 17.3905Z" fill="#E34E70"/>
<path d="M8.83314 16.3262C9.27728 16.575 10.215 14.8848 9.76869 14.6379C9.3226 14.391 8.3849 16.0773 8.83314 16.3262Z" fill="#F7B3C5"/>
<path d="M8.99287 15.9134C9.19014 16.028 9.70772 15.1057 9.5042 14.9913C9.30088 14.8766 8.7835 15.7989 8.99287 15.9134Z" fill="#E34E70"/>
<path d="M9.13705 14.2431C9.51596 14.5394 10.6058 13.1413 10.223 12.8431C9.83998 12.5448 8.75209 13.939 9.13705 14.2431Z" fill="#F7B3C5"/>
<path d="M9.33451 13.8875C9.50833 14.0238 10.1044 13.2595 9.92669 13.1234C9.74896 12.9871 9.15873 13.7513 9.33451 13.8875Z" fill="#E34E70"/>
<path d="M10.9673 13.3921C11.3325 13.7099 12.4894 12.3671 12.1222 12.0513C11.755 11.7353 10.606 13.0761 10.9673 13.3921Z" fill="#F7B3C5"/>
<path d="M11.1904 13.0483C11.3564 13.1946 11.98 12.456 11.8222 12.3159C11.6642 12.1757 11.0206 12.9042 11.1904 13.0483Z" fill="#E34E70"/>
<path d="M11.7983 11.603C12.1282 11.8874 13.0737 10.7894 12.7421 10.5052C12.4104 10.2208 11.4667 11.3167 11.7983 11.6028" fill="#F7B3C5"/>
<path d="M11.9703 11.3164C12.1222 11.4469 12.6396 10.8467 12.4874 10.7242C12.3355 10.6018 11.8203 11.1883 11.9703 11.3166" fill="#E34E70"/>
<path d="M13.3839 11.2494C13.755 11.4746 14.5073 10.2365 14.1319 10.0094C13.7569 9.78223 13.0067 11.0201 13.3839 11.2494Z" fill="#F389A4"/>
<path d="M13.5062 10.9395C13.6742 11.0422 14.0867 10.3668 13.9169 10.2621C13.747 10.1575 13.3365 10.8368 13.5062 10.9395Z" fill="#E34E70"/>
<path d="M13.5339 9.76245C13.9505 9.88491 14.2722 8.81069 13.8517 8.68628C13.4312 8.56186 13.1193 9.63608 13.5339 9.76245Z" fill="#F389A4"/>
<path d="M13.5617 9.50207C13.7589 9.5593 13.9269 8.97082 13.7353 8.90969C13.5439 8.84836 13.3703 9.44485 13.5617 9.50207Z" fill="#E34E70"/>
<path d="M14.689 8.56605C15.0995 8.42191 14.7304 7.36331 14.3157 7.50941C13.9011 7.6557 14.2765 8.7141 14.689 8.56605Z" fill="#F389A4"/>
<path d="M14.5527 8.34466C14.7499 8.28157 14.5371 7.70091 14.3554 7.7681C14.1738 7.83528 14.3652 8.40989 14.5527 8.34466Z" fill="#E34E70"/>
<path d="M13.6445 7.34191C13.7136 6.91125 12.608 6.73761 12.539 7.17003C12.4697 7.60246 13.5773 7.77824 13.6445 7.34191Z" fill="#F389A4"/>
<path d="M13.3859 7.35731C13.4175 7.16005 12.8113 7.06708 12.7818 7.26259C12.7521 7.4579 13.3542 7.55477 13.3859 7.35731Z" fill="#E34E70"/>
</g>
<defs>
<radialGradient id="paint0_radial_123_239" cx="0" cy="0" r="1" gradientUnits="userSpaceOnUse" gradientTransform="translate(2479.79 2457.77) scale(2481.78 2481.78)">
<stop stop-color="#E33332"/>
<stop offset="0.2" stop-color="#E03330"/>
<stop offset="0.38" stop-color="#D52E2C"/>
<stop offset="0.54" stop-color="#C32827"/>
<stop offset="0.71" stop-color="#A91F23"/>
<stop offset="0.86" stop-color="#89181A"/>
<stop offset="1" stop-color="#640E0E"/>
</radialGradient>
<linearGradient id="paint1_linear_123_239" x1="4.5088" y1="674.867" x2="1386.36" y2="674.867" gradientUnits="userSpaceOnUse">
<stop stop-color="#F7B3C5"/>
<stop offset="0.19" stop-color="#F7B0C2"/>
<stop offset="0.38" stop-color="#F6A4B6"/>
<stop offset="0.58" stop-color="#F390A5"/>
<stop offset="0.79" stop-color="#E7728B"/>
<stop offset="0.99" stop-color="#DC4D6C"/>
<stop offset="1" stop-color="#DA4B6A"/>
</linearGradient>
<linearGradient id="paint2_linear_123_239" x1="0.942152" y1="360.51" x2="1886.06" y2="360.51" gradientUnits="userSpaceOnUse">
<stop stop-color="#F7B3C5"/>
<stop offset="0.19" stop-color="#F7B0C2"/>
<stop offset="0.38" stop-color="#F6A4B6"/>
<stop offset="0.58" stop-color="#F390A5"/>
<stop offset="0.79" stop-color="#E7728B"/>
<stop offset="0.99" stop-color="#DC4D6C"/>
<stop offset="1" stop-color="#DA4B6A"/>
</linearGradient>
<radialGradient id="paint3_radial_123_239" cx="0" cy="0" r="1" gradientUnits="userSpaceOnUse" gradientTransform="translate(488.687 472.532) scale(868.125 868.126)">
<stop stop-color="#F7B3C5"/>
<stop offset="0.19" stop-color="#F7B0C2"/>
<stop offset="0.38" stop-color="#F6A4B6"/>
<stop offset="0.58" stop-color="#F390A5"/>
<stop offset="0.79" stop-color="#E7728B"/>
<stop offset="0.99" stop-color="#DC4D6C"/>
<stop offset="1" stop-color="#DA4B6A"/>
</radialGradient>
<radialGradient id="paint4_radial_123_239" cx="0" cy="0" r="1" gradientUnits="userSpaceOnUse" gradientTransform="translate(978.318 982.524) scale(1073.85 1073.85)">
<stop stop-color="#F7B3C5"/>
<stop offset="0.19" stop-color="#F7B0C2"/>
<stop offset="0.38" stop-color="#F6A4B6"/>
<stop offset="0.58" stop-color="#F390A5"/>
<stop offset="0.79" stop-color="#E7728B"/>
<stop offset="0.99" stop-color="#DC4D6C"/>
<stop offset="1" stop-color="#DA4B6A"/>
</radialGradient>
<linearGradient id="paint5_linear_123_239" x1="32.4738" y1="674.876" x2="1414.13" y2="674.876" gradientUnits="userSpaceOnUse">
<stop stop-color="#DA4B6A"/>
<stop offset="0.01" stop-color="#DC4D6C"/>
<stop offset="0.21" stop-color="#E7728B"/>
<stop offset="0.42" stop-color="#F390A5"/>
<stop offset="0.62" stop-color="#F6A4B6"/>
<stop offset="0.81" stop-color="#F7B0C2"/>
<stop offset="1" stop-color="#F7B3C5"/>
</linearGradient>
<linearGradient id="paint6_linear_123_239" x1="31.3566" y1="360.701" x2="1916.67" y2="360.701" gradientUnits="userSpaceOnUse">
<stop stop-color="#DA4B6A"/>
<stop offset="0.01" stop-color="#DC4D6C"/>
<stop offset="0.21" stop-color="#E7728B"/>
<stop offset="0.42" stop-color="#F390A5"/>
<stop offset="0.62" stop-color="#F6A4B6"/>
<stop offset="0.81" stop-color="#F7B0C2"/>
<stop offset="1" stop-color="#F7B3C5"/>
</linearGradient>
<radialGradient id="paint7_radial_123_239" cx="0" cy="0" r="1" gradientUnits="userSpaceOnUse" gradientTransform="translate(527.011 472.357) scale(868.127 868.121)">
<stop stop-color="#F7B3C5"/>
<stop offset="0.19" stop-color="#F7B0C2"/>
<stop offset="0.38" stop-color="#F6A4B6"/>
<stop offset="0.58" stop-color="#F390A5"/>
<stop offset="0.79" stop-color="#E7728B"/>
<stop offset="0.99" stop-color="#DC4D6C"/>
<stop offset="1" stop-color="#DA4B6A"/>
</radialGradient>
<clipPath id="clip0_123_239">
<rect width="50" height="50" fill="white" transform="translate(0.380005)"/>
</clipPath>
</defs>
</svg>
