<svg width="51" height="50" viewBox="0 0 51 50" fill="none" xmlns="http://www.w3.org/2000/svg">
<g clip-path="url(#clip0_123_236)">
<path d="M39.0675 19.6542C37.6433 19.2057 36.9081 19.3569 35.4148 19.1932C33.1062 18.9413 32.1862 18.0374 31.796 15.7116C31.5776 14.4132 31.8355 12.512 31.278 11.335C30.212 9.09052 27.7175 8.08387 25.2116 8.65848C23.0956 9.14442 21.3351 11.2624 21.2374 13.4366C21.1261 15.919 22.5382 18.0374 24.9628 18.7686C26.1151 19.1163 27.339 19.2913 28.5421 19.38C30.7487 19.5413 30.9183 20.7698 31.5148 21.7811C31.8913 22.4186 32.2558 23.0468 32.2558 24.9479C32.2558 26.8491 31.889 27.4768 31.5151 28.1143C30.9183 29.1233 30.1819 29.7843 27.9753 29.9475C26.7722 30.0366 25.5456 30.2116 24.3964 30.5597C21.9714 31.2929 20.5593 33.4085 20.6706 35.8913C20.7683 38.0655 22.5288 40.1835 24.6448 40.6694C27.1507 41.246 29.6452 40.2374 30.7112 37.9929C31.271 36.8159 31.5776 35.4823 31.796 34.1843C32.1886 31.8581 33.1085 30.9542 35.4148 30.7018C36.9081 30.5386 38.4538 30.7018 39.8534 29.9058C41.3319 28.8237 42.6534 27.1987 42.6534 24.9479C42.6534 22.6964 41.2296 20.3362 39.0675 19.6542Z" fill="#F44250"/>
<path d="M15.38 30.2237C12.4699 30.2237 10.0956 27.8417 10.0956 24.921C10.0956 22.0007 12.4695 19.6187 15.3796 19.6187C18.2898 19.6187 20.664 22.0007 20.664 24.921C20.664 27.839 18.2878 30.2237 15.3796 30.2237H15.38ZM5.64565 40.9999C2.7394 40.9929 0.372989 38.6015 0.380021 35.6784C0.387052 32.7604 2.77025 30.3854 5.68275 30.3948C8.59057 30.4019 10.9574 32.7933 10.9484 35.7159C10.9413 38.6315 8.55775 41.0069 5.64565 40.9999ZM44.9081 40.9999C41.9933 41.0159 39.6011 38.6503 39.5843 35.737C39.5683 32.812 41.9257 30.4112 44.8288 30.3948C47.7437 30.3784 50.1363 32.744 50.1527 35.6573C50.1687 38.58 47.8113 40.9835 44.9081 40.9999Z" fill="#121212"/>
</g>
<defs>
<clipPath id="clip0_123_236">
<rect width="50" height="50" fill="white" transform="translate(0.380005)"/>
</clipPath>
</defs>
</svg>
