<svg width="51" height="50" viewBox="0 0 51 50" fill="none" xmlns="http://www.w3.org/2000/svg">
<path fill-rule="evenodd" clip-rule="evenodd" d="M25.15 3.125C29.4765 3.125 33.7058 4.40795 37.3031 6.8116C40.9004 9.21526 43.7042 12.6317 45.3599 16.6288C47.0156 20.6259 47.4488 25.0243 46.6047 29.2676C45.7606 33.5109 43.6773 37.4087 40.618 40.468C37.5587 43.5272 33.661 45.6106 29.4176 46.4547C25.1743 47.2987 20.776 46.8655 16.7788 45.2099C12.7817 43.5542 9.36528 40.7504 6.96163 37.1531C4.55797 33.5558 3.27502 29.3265 3.27502 25C3.27502 19.1984 5.57971 13.6344 9.68206 9.53204C13.7844 5.42968 19.3484 3.125 25.15 3.125Z" fill="#CC6699"/>
<path d="M38.8719 12.4875C37.8813 8.60311 31.4391 7.33124 25.3422 9.49061C21.5239 10.7737 17.9962 12.7972 14.961 15.4453C11.6031 18.5859 11.0672 21.3203 11.2875 22.4625C12.0688 26.4937 17.5891 29.1281 19.8594 31.0828V31.0937C19.1906 31.4234 14.2906 33.9062 13.1406 36.4375C11.9313 39.1125 13.3328 41.0312 14.2625 41.2891C15.6583 41.6251 17.1243 41.5157 18.4548 40.9763C19.7853 40.4369 20.9136 39.4944 21.6813 38.2812C22.3157 37.2983 22.7127 36.1812 22.8407 35.0183C22.9687 33.8554 22.8242 32.6786 22.4188 31.5812C23.5123 31.3034 24.6491 31.2381 25.7672 31.3891C29.6047 31.8375 30.3578 34.2328 30.2141 35.2359C30.1465 35.593 30.0028 35.9313 29.7927 36.2279C29.5827 36.5245 29.3113 36.7724 28.9969 36.9547C28.7281 37.1219 28.6453 37.1781 28.6688 37.3031C28.7016 37.4828 28.825 37.4766 29.0547 37.4375C29.6314 37.2559 30.1395 36.9038 30.5122 36.4277C30.8848 35.9516 31.1045 35.3737 31.1422 34.7703C31.2344 32.4266 28.9828 29.7922 24.9953 29.8594C23.8372 29.8263 22.6816 29.9847 21.575 30.3281C21.5196 30.2648 21.4634 30.2023 21.4063 30.1406C18.9406 27.5109 14.3844 25.65 14.5766 22.1141C14.6469 20.8281 15.0938 17.4437 23.3266 13.3375C30.0766 9.97343 35.4797 10.9 36.4141 12.9515C37.7485 15.8828 33.5266 21.3281 26.5172 22.1141C25.7425 22.2713 24.9423 22.2521 24.176 22.0579C23.4097 21.8637 22.6969 21.4995 22.0906 20.9922C21.7219 20.5859 21.6672 20.5687 21.5297 20.6437C21.3063 20.7672 21.4485 21.1266 21.5297 21.3391C21.7981 21.8228 22.1604 22.248 22.5953 22.5898C23.0303 22.9317 23.5291 23.1832 24.0625 23.3297C26.8184 23.9285 29.6929 23.6442 32.2781 22.5172C36.5297 20.8781 39.8453 16.3078 38.8719 12.4875ZM20.8031 32.2859C21.1135 33.3558 21.0977 34.4939 20.7578 35.5547C20.7214 35.6651 20.6813 35.7745 20.6375 35.8828C20.5938 35.9911 20.5464 36.0953 20.4953 36.1953C20.2324 36.7333 19.8917 37.2298 19.4844 37.6687C18.2141 39.0547 16.4375 39.5797 15.6766 39.1375C14.8547 38.6609 15.2656 36.7062 16.7391 35.1484C17.8712 34.0289 19.1765 33.0992 20.6047 32.3953L20.8031 32.2859Z" fill="white"/>
</svg>
