<svg width="51" height="50" viewBox="0 0 51 50" fill="none" xmlns="http://www.w3.org/2000/svg">
<g clip-path="url(#clip0_123_219)">
<path d="M38.4313 0H11.8688C5.39669 0 0.150024 5.24666 0.150024 11.7188V38.2812C0.150024 44.7533 5.39669 50 11.8688 50H38.4313C44.9034 50 50.15 44.7533 50.15 38.2812V11.7188C50.15 5.24666 44.9034 0 38.4313 0Z" fill="url(#paint0_linear_123_219)"/>
<path d="M2.39357 25.2108L12.2186 29.192V31.979L0.587708 26.5901V24.9549L2.39357 25.2108ZM12.2186 21.9407L2.40782 25.9786L0.587903 26.1778V24.5284L12.2184 19.1538L12.2186 21.9407ZM47.2928 25.7795L37.1834 21.8411V19.1252L49.326 24.4999V26.1635L47.2928 25.7795ZM37.1834 29.2489L47.3213 25.225L49.326 24.9264V26.5758L37.1834 31.9647V29.2489Z" fill="white"/>
<path fill-rule="evenodd" clip-rule="evenodd" d="M34.5401 11.9334C34.4838 12.8252 34.0821 13.7564 34.194 14.6234C34.8957 15.8644 36.4403 16.0623 37.7145 16.1474C38.5973 16.3053 38.5862 15.7207 38.527 15.064L38.5377 11.9148C37.2051 11.9197 35.8721 11.9017 34.5401 11.9334ZM24.0321 14.4275C21.8625 14.7959 19.6633 15.8326 17.8584 17.0806C16.4057 18.2113 19.1055 19.307 20.085 19.4902C22.0557 19.5142 23.8035 18.1849 25.0981 16.8053C25.5207 16.2252 26.0487 15.3371 25.5176 14.6646C25.1121 14.3131 24.5225 14.3982 24.0321 14.4275ZM28.6487 17.583C26.8649 17.9228 25.1676 18.658 23.6658 19.6816C22.5649 20.0273 21.6574 21.2361 23.0217 21.8418C24.4543 22.9834 26.1147 22.7037 27.434 21.933C28.6422 21.2148 29.9473 20.3287 30.5063 18.9767C31.0342 17.4957 29.6721 17.4408 28.6487 17.583ZM33.709 23.3219C33.3768 24.7094 31.9795 25.3402 31.2362 26.4396C30.6283 27.2416 30.9098 28.1863 31.6018 28.8176C31.9387 29.5162 32.5293 29.9066 33.1627 29.2998C34.794 28.1908 35.2451 26.0306 35.1774 24.159C35.2979 23.3859 34.411 24.0847 33.709 23.3219ZM27.5014 25.9279C25.3352 26.2986 23.1686 27.3541 21.3629 28.6002C19.9612 29.7293 22.6012 30.7836 23.5887 30.9508C25.5959 30.9537 27.3864 29.6601 28.6555 28.191C29.0969 27.6076 29.6319 26.4746 28.7578 26.0107C28.367 25.8451 27.9133 25.8937 27.5014 25.9279Z" fill="#B956A6"/>
<path fill-rule="evenodd" clip-rule="evenodd" d="M17.8584 17.0807C16.1924 17.7473 14.5854 18.5567 12.9983 19.4044C12.7034 20.5011 12.9399 21.8591 12.8635 23.0616C12.8577 28.0061 12.8604 32.9509 12.8596 37.8954H16.5354C17.2776 37.1966 18.2073 36.685 19.0135 36.0505C22.1178 33.8241 25.2211 31.5891 28.3213 29.369C28.5495 29.4716 28.4034 28.027 27.903 29.0304C26.7172 30.1462 25.1434 31.0639 23.4776 30.9743C22.5323 30.6634 21.0084 30.1358 20.9989 28.9774C21.6643 28.194 19.7711 29.3876 19.2532 29.5585C17.5692 30.3671 15.925 31.27 14.2375 32.0636C14.643 31.628 15.4016 31.222 15.9395 30.7899C19.7819 28.0317 23.6233 25.2628 27.4748 22.5067C28.2157 21.9866 28.9313 21.4192 29.695 20.9331C29.7647 21.2024 29.8955 19.6454 29.3276 20.604C28.1698 21.7516 26.608 22.6059 24.961 22.6177C24.0346 22.3364 22.0616 21.6639 22.5008 20.4679C22.7151 20.0481 20.511 21.3626 21.4848 20.6214C22.5213 19.8639 23.5661 19.12 24.6106 18.3704C25.1381 18.3307 25.0258 16.3712 24.309 17.6352C23.1049 18.6932 21.5229 19.6612 19.8645 19.4317C18.9329 19.1636 17.8151 18.6442 17.4764 17.67C17.3643 17.436 18.1037 17.0714 17.8584 17.0807ZM24.7606 18.2903C24.928 18.1938 24.6682 18.5546 24.7606 18.2903Z" fill="#FCCC44"/>
<path fill-rule="evenodd" clip-rule="evenodd" d="M35.2865 15.7716C34.7664 18.2552 34.1979 20.8546 33.709 23.3218C35.1137 25.0921 35.2498 22.2034 35.4955 21.3866C35.8926 19.6794 36.3629 18.3903 36.4127 16.6227C36.5182 16.0194 35.8092 15.6542 35.2865 15.7716ZM36.898 17.719C36.9621 17.7669 36.8541 17.9735 36.898 17.719ZM35.2594 23.2882C35.327 23.4337 35.327 23.1425 35.2594 23.2882Z" fill="#62777F"/>
<path fill-rule="evenodd" clip-rule="evenodd" d="M36.2078 16.0527C36.6461 18.5141 35.1943 21.5043 34.7195 23.825C35.7977 23.0316 36.6307 19.432 36.8436 18.023C36.8984 17.8619 36.966 17.4564 36.9807 17.4418C37.0484 17.0998 37.6799 16.5203 37.7145 16.1475C38.082 15.8881 35.9078 15.8465 36.2078 16.0527ZM35.3139 23.2881C35.2461 23.4336 35.2461 23.1424 35.3139 23.2881Z" fill="#4E5E67"/>
<path fill-rule="evenodd" clip-rule="evenodd" d="M17.8949 17.1218C17.2871 17.7304 17.5152 17.5817 17.9676 17.0757L17.8949 17.1218ZM24.4692 17.4231C23.7651 18.4812 21.226 19.3659 20.9063 19.4345C22.4336 19.1483 23.8572 18.1981 24.859 17.0853C24.6998 17.1562 24.6053 17.3228 24.4692 17.4231ZM17.4774 17.7667C17.8568 18.6792 19.2367 19.2854 19.9072 19.4269C18.9918 19.1319 17.9143 18.6089 17.4774 17.7667ZM24.7059 18.2944C24.5143 18.5206 23.8318 18.8589 23.4721 19.1909C22.7004 19.7601 21.9022 20.289 21.1393 20.8724C21.625 20.8515 23.0484 19.7882 22.3188 20.8671C22.9371 21.9313 24.2834 22.6714 25.511 22.6038C27.132 22.3493 28.627 21.453 29.7016 20.2065C28.3971 21.4974 26.6725 22.7122 24.7641 22.5448C23.8404 22.3315 21.3166 21.0278 23.0049 20.114C23.6002 19.6243 24.6266 19.3679 24.7428 18.5073C24.7184 18.3999 24.9186 18.295 24.7059 18.2944ZM20.085 19.4903C20.6992 19.5706 20.6992 19.4103 20.085 19.4903ZM29.6559 20.9601C27.2186 22.6581 24.8166 24.4226 22.4004 26.1511C19.6621 28.1108 16.9356 30.0778 14.1981 32.036C15.2274 31.689 16.2586 31.0112 17.2811 30.5431C18.6893 29.7981 20.174 29.2097 21.4916 28.3048C24.0967 26.7712 26.8518 25.3101 28.8555 22.9638C29.2928 22.4509 29.7313 21.6253 29.7508 21.07C29.6877 21.0878 29.7356 20.8479 29.6559 20.9601ZM21.3629 28.6001C20.9244 29.0956 20.7463 29.4497 21.2014 28.8196C21.1934 28.8927 21.5707 28.4284 21.3629 28.6001ZM28.034 28.8372C26.8789 30.0552 25.1705 30.9337 23.5676 30.9929C25.4207 31.0063 27.0926 29.9063 28.3481 28.6087C28.2656 28.5091 28.0986 28.8407 28.034 28.8372ZM28.3869 29.22C24.5063 32.045 20.4916 34.9753 16.5979 37.7901C17.2111 37.9825 18.5469 38.0728 19.1565 37.2874C20.4533 36.3925 21.9113 35.7345 23.2125 34.8274C25.0967 33.6048 27.1141 32.2685 28.1842 30.2136C28.2352 29.938 28.6139 29.4423 28.3869 29.22ZM21.0016 29.3993C21.1817 30.1595 23.4328 31.0319 23.1887 30.8649C22.3586 30.5739 21.5352 30.1204 21.0016 29.3993Z" fill="#DC9624"/>
</g>
<defs>
<linearGradient id="paint0_linear_123_219" x1="0.150024" y1="50" x2="50.15" y2="0" gradientUnits="userSpaceOnUse">
<stop stop-color="#DB7093"/>
<stop offset="1" stop-color="#F3B661"/>
</linearGradient>
<clipPath id="clip0_123_219">
<rect width="50" height="50" fill="white" transform="translate(0.150024)"/>
</clipPath>
</defs>
</svg>
