<svg width="51" height="50" viewBox="0 0 51 50" fill="none" xmlns="http://www.w3.org/2000/svg">
<g clip-path="url(#clip0_123_202)">
<path d="M38.4313 0H11.8688C5.39669 0 0.150024 5.24666 0.150024 11.7188V38.2812C0.150024 44.7533 5.39669 50 11.8688 50H38.4313C44.9034 50 50.15 44.7533 50.15 38.2812V11.7188C50.15 5.24666 44.9034 0 38.4313 0Z" fill="#007ACC"/>
<path d="M11.2069 25.1659L11.191 27.2136H17.6989V45.7056H22.3024V27.2136H28.8102V25.2056C28.8102 24.0945 28.7865 23.1659 28.7547 23.1421C28.7309 23.1105 24.7705 23.0944 19.969 23.1025L11.2309 23.1263L11.2069 25.1659ZM40.4951 23.0681C41.7649 23.3857 42.7332 23.9491 43.6221 24.8696C44.0824 25.3618 44.7649 26.2587 44.8205 26.473C44.8363 26.5364 42.6617 27.9968 41.3444 28.8142C41.2967 28.846 41.1061 28.6396 40.8918 28.3222C40.249 27.3857 39.5744 26.9808 38.5426 26.9095C37.0268 26.8062 36.0506 27.5999 36.0586 28.9253C36.0586 29.3142 36.1141 29.5443 36.2729 29.8618C36.6061 30.5523 37.2252 30.965 39.1698 31.8062C42.749 33.346 44.2807 34.3618 45.2332 35.8062C46.2967 37.4173 46.5348 39.9888 45.8125 41.9015C45.019 43.9808 43.0506 45.3935 40.2807 45.8618C39.4237 46.0126 37.3918 45.9888 36.4713 45.8222C34.4633 45.465 32.5586 44.473 31.384 43.1714C30.9237 42.6634 30.0268 41.338 30.0824 41.2427C30.1061 41.2111 30.3125 41.0841 30.5426 40.9491C30.7649 40.8222 31.6063 40.338 32.3998 39.8777L33.8364 39.0443L34.1379 39.4888C34.5586 40.1316 35.4791 41.0126 36.0348 41.3062C37.6299 42.1476 39.8205 42.0284 40.8998 41.0603C41.3602 40.6396 41.5506 40.203 41.5506 39.5603C41.5506 38.9808 41.4791 38.7269 41.1776 38.2903C40.7887 37.7349 39.9951 37.2665 37.741 36.2903C35.1617 35.1792 34.0506 34.4888 33.0348 33.3935C32.4475 32.7587 31.8918 31.7427 31.6617 30.8935C31.4713 30.1872 31.4237 28.4173 31.5744 27.703C32.1061 25.2111 33.9871 23.473 36.7014 22.957C37.5824 22.7903 39.6299 22.8538 40.4951 23.0681Z" fill="white"/>
</g>
<defs>
<clipPath id="clip0_123_202">
<rect width="50" height="50" fill="white" transform="translate(0.150024)"/>
</clipPath>
</defs>
</svg>
